<mxfile host="app.diagrams.net" modified="2024-03-27T03:14:12.042Z" agent="Mozilla/5.0 (Windows NT 10.0; Win64; x64) AppleWebKit/537.36 (KHTML, like Gecko) Chrome/123.0.0.0 Safari/537.36" etag="U7F-dRrwleyQKSi2HDVS" version="24.1.0" type="github">
  <diagram name="第 1 页" id="OOSJCIqJ-EwVnwM63ZJ6">
    <mxGraphModel dx="786" dy="416" grid="1" gridSize="10" guides="1" tooltips="1" connect="1" arrows="1" fold="1" page="1" pageScale="1" pageWidth="827" pageHeight="1169" math="0" shadow="0">
      <root>
        <mxCell id="0" />
        <mxCell id="1" parent="0" />
        <mxCell id="Xjq-Euk7-c84LHBLY0ZQ-1" value="&#xa;&lt;span style=&quot;color: rgb(0, 0, 0); font-family: Helvetica; font-size: 12px; font-style: normal; font-variant-ligatures: normal; font-variant-caps: normal; font-weight: 400; letter-spacing: normal; orphans: 2; text-align: center; text-indent: 0px; text-transform: none; widows: 2; word-spacing: 0px; -webkit-text-stroke-width: 0px; background-color: rgb(251, 251, 251); text-decoration-thickness: initial; text-decoration-style: initial; text-decoration-color: initial; float: none; display: inline !important;&quot;&gt;限位&lt;/span&gt;&#xa;&#xa;" style="swimlane;whiteSpace=wrap;html=1;" vertex="1" parent="1">
          <mxGeometry x="30" y="40" width="736" height="930" as="geometry" />
        </mxCell>
        <mxCell id="Xjq-Euk7-c84LHBLY0ZQ-2" value="" style="shape=cube;whiteSpace=wrap;html=1;boundedLbl=1;backgroundOutline=1;darkOpacity=0.05;darkOpacity2=0.1;direction=east;flipH=1;" vertex="1" parent="Xjq-Euk7-c84LHBLY0ZQ-1">
          <mxGeometry x="104" y="60" width="390" height="280" as="geometry" />
        </mxCell>
        <mxCell id="Xjq-Euk7-c84LHBLY0ZQ-3" value="" style="shape=cube;whiteSpace=wrap;html=1;boundedLbl=1;backgroundOutline=1;darkOpacity=0.05;darkOpacity2=0.1;flipV=0;flipH=1;" vertex="1" parent="Xjq-Euk7-c84LHBLY0ZQ-1">
          <mxGeometry x="184" y="182.27999999999997" width="170" height="40" as="geometry" />
        </mxCell>
        <mxCell id="Xjq-Euk7-c84LHBLY0ZQ-4" value="" style="shape=cube;whiteSpace=wrap;html=1;boundedLbl=1;backgroundOutline=1;darkOpacity=0.05;darkOpacity2=0.1;flipH=0;direction=west;flipV=1;rotation=0;size=70;" vertex="1" parent="Xjq-Euk7-c84LHBLY0ZQ-1">
          <mxGeometry x="308" y="152.27999999999997" width="136" height="95.43" as="geometry" />
        </mxCell>
        <mxCell id="Xjq-Euk7-c84LHBLY0ZQ-5" value="" style="shape=cylinder3;whiteSpace=wrap;html=1;boundedLbl=1;backgroundOutline=1;size=6.755456891741176;flipV=0;" vertex="1" parent="Xjq-Euk7-c84LHBLY0ZQ-1">
          <mxGeometry x="244" y="182.27999999999997" width="36" height="55.43" as="geometry" />
        </mxCell>
        <mxCell id="Xjq-Euk7-c84LHBLY0ZQ-6" value="1" style="ellipse;whiteSpace=wrap;html=1;aspect=fixed;" vertex="1" parent="Xjq-Euk7-c84LHBLY0ZQ-1">
          <mxGeometry x="375" y="150" width="20" height="20" as="geometry" />
        </mxCell>
        <mxCell id="Xjq-Euk7-c84LHBLY0ZQ-7" value="2" style="ellipse;whiteSpace=wrap;html=1;aspect=fixed;" vertex="1" parent="Xjq-Euk7-c84LHBLY0ZQ-1">
          <mxGeometry x="355" y="170" width="20" height="20" as="geometry" />
        </mxCell>
        <mxCell id="Xjq-Euk7-c84LHBLY0ZQ-8" value="3" style="ellipse;whiteSpace=wrap;html=1;aspect=fixed;" vertex="1" parent="Xjq-Euk7-c84LHBLY0ZQ-1">
          <mxGeometry x="325" y="202.27999999999997" width="20" height="20" as="geometry" />
        </mxCell>
        <mxCell id="Xjq-Euk7-c84LHBLY0ZQ-9" value="4" style="ellipse;whiteSpace=wrap;html=1;aspect=fixed;" vertex="1" parent="Xjq-Euk7-c84LHBLY0ZQ-1">
          <mxGeometry x="194" y="189.99" width="20" height="20" as="geometry" />
        </mxCell>
        <mxCell id="Xjq-Euk7-c84LHBLY0ZQ-10" value="5" style="ellipse;whiteSpace=wrap;html=1;aspect=fixed;" vertex="1" parent="Xjq-Euk7-c84LHBLY0ZQ-1">
          <mxGeometry x="214" y="190" width="20" height="20" as="geometry" />
        </mxCell>
        <mxCell id="Xjq-Euk7-c84LHBLY0ZQ-11" value="6" style="ellipse;whiteSpace=wrap;html=1;aspect=fixed;" vertex="1" parent="Xjq-Euk7-c84LHBLY0ZQ-1">
          <mxGeometry x="308" y="189.99" width="20" height="20" as="geometry" />
        </mxCell>
        <mxCell id="Xjq-Euk7-c84LHBLY0ZQ-12" value="7" style="ellipse;whiteSpace=wrap;html=1;aspect=fixed;" vertex="1" parent="Xjq-Euk7-c84LHBLY0ZQ-1">
          <mxGeometry x="202" y="267.71000000000004" width="20" height="20" as="geometry" />
        </mxCell>
        <mxCell id="Xjq-Euk7-c84LHBLY0ZQ-13" value="8" style="ellipse;whiteSpace=wrap;html=1;aspect=fixed;" vertex="1" parent="Xjq-Euk7-c84LHBLY0ZQ-1">
          <mxGeometry x="208" y="247.71000000000004" width="20" height="20" as="geometry" />
        </mxCell>
        <mxCell id="Xjq-Euk7-c84LHBLY0ZQ-14" value="9" style="ellipse;whiteSpace=wrap;html=1;aspect=fixed;" vertex="1" parent="Xjq-Euk7-c84LHBLY0ZQ-1">
          <mxGeometry x="244" y="152.27999999999997" width="20" height="20" as="geometry" />
        </mxCell>
        <mxCell id="Xjq-Euk7-c84LHBLY0ZQ-15" value="" style="group;rotation=180;" vertex="1" connectable="0" parent="Xjq-Euk7-c84LHBLY0ZQ-1">
          <mxGeometry x="190" y="570" width="370" height="40" as="geometry" />
        </mxCell>
        <mxCell id="Xjq-Euk7-c84LHBLY0ZQ-16" value="" style="endArrow=none;html=1;rounded=0;edgeStyle=orthogonalEdgeStyle;curved=1;" edge="1" parent="Xjq-Euk7-c84LHBLY0ZQ-15">
          <mxGeometry width="50" height="50" relative="1" as="geometry">
            <mxPoint x="-59.07317073170732" y="-270" as="sourcePoint" />
            <mxPoint x="13.121951219512198" y="-270" as="targetPoint" />
            <Array as="points">
              <mxPoint x="-36" y="-270" />
              <mxPoint x="-36" y="-240" />
              <mxPoint x="-14" y="-240" />
              <mxPoint x="-14" y="-270" />
            </Array>
          </mxGeometry>
        </mxCell>
        <mxCell id="Xjq-Euk7-c84LHBLY0ZQ-17" value="" style="endArrow=none;html=1;rounded=0;" edge="1" parent="Xjq-Euk7-c84LHBLY0ZQ-1">
          <mxGeometry width="50" height="50" relative="1" as="geometry">
            <mxPoint x="194.09756097560978" y="300" as="sourcePoint" />
            <mxPoint x="444" y="300" as="targetPoint" />
          </mxGeometry>
        </mxCell>
        <mxCell id="Xjq-Euk7-c84LHBLY0ZQ-18" value="M" style="ellipse;whiteSpace=wrap;html=1;aspect=fixed;" vertex="1" parent="Xjq-Euk7-c84LHBLY0ZQ-1">
          <mxGeometry x="154" y="310" width="20" height="20" as="geometry" />
        </mxCell>
        <mxCell id="Xjq-Euk7-c84LHBLY0ZQ-19" value="10" style="ellipse;whiteSpace=wrap;html=1;aspect=fixed;" vertex="1" parent="Xjq-Euk7-c84LHBLY0ZQ-1">
          <mxGeometry x="252" y="202.27999999999997" width="20" height="20" as="geometry" />
        </mxCell>
        <mxCell id="Xjq-Euk7-c84LHBLY0ZQ-20" value="1" style="ellipse;whiteSpace=wrap;html=1;aspect=fixed;" vertex="1" parent="Xjq-Euk7-c84LHBLY0ZQ-1">
          <mxGeometry x="186" y="465" width="20" height="20" as="geometry" />
        </mxCell>
        <mxCell id="Xjq-Euk7-c84LHBLY0ZQ-21" value="Ylmit-" style="text;html=1;strokeColor=none;fillColor=none;align=center;verticalAlign=middle;whiteSpace=wrap;rounded=0;" vertex="1" parent="Xjq-Euk7-c84LHBLY0ZQ-1">
          <mxGeometry x="226" y="460" width="60" height="30" as="geometry" />
        </mxCell>
        <mxCell id="Xjq-Euk7-c84LHBLY0ZQ-22" value="2" style="ellipse;whiteSpace=wrap;html=1;aspect=fixed;" vertex="1" parent="Xjq-Euk7-c84LHBLY0ZQ-1">
          <mxGeometry x="186" y="495" width="20" height="20" as="geometry" />
        </mxCell>
        <mxCell id="Xjq-Euk7-c84LHBLY0ZQ-23" value="YHome" style="text;html=1;strokeColor=none;fillColor=none;align=center;verticalAlign=middle;whiteSpace=wrap;rounded=0;" vertex="1" parent="Xjq-Euk7-c84LHBLY0ZQ-1">
          <mxGeometry x="226" y="490" width="60" height="30" as="geometry" />
        </mxCell>
        <mxCell id="Xjq-Euk7-c84LHBLY0ZQ-24" value="3" style="ellipse;whiteSpace=wrap;html=1;aspect=fixed;" vertex="1" parent="Xjq-Euk7-c84LHBLY0ZQ-1">
          <mxGeometry x="186" y="525" width="20" height="20" as="geometry" />
        </mxCell>
        <mxCell id="Xjq-Euk7-c84LHBLY0ZQ-25" value="Ylmit+" style="text;html=1;strokeColor=none;fillColor=none;align=center;verticalAlign=middle;whiteSpace=wrap;rounded=0;" vertex="1" parent="Xjq-Euk7-c84LHBLY0ZQ-1">
          <mxGeometry x="226" y="520" width="60" height="30" as="geometry" />
        </mxCell>
        <mxCell id="Xjq-Euk7-c84LHBLY0ZQ-26" value="4" style="ellipse;whiteSpace=wrap;html=1;aspect=fixed;" vertex="1" parent="Xjq-Euk7-c84LHBLY0ZQ-1">
          <mxGeometry x="186" y="555" width="20" height="20" as="geometry" />
        </mxCell>
        <mxCell id="Xjq-Euk7-c84LHBLY0ZQ-27" value="Xlmit-" style="text;html=1;strokeColor=none;fillColor=none;align=center;verticalAlign=middle;whiteSpace=wrap;rounded=0;" vertex="1" parent="Xjq-Euk7-c84LHBLY0ZQ-1">
          <mxGeometry x="226" y="550" width="60" height="30" as="geometry" />
        </mxCell>
        <mxCell id="Xjq-Euk7-c84LHBLY0ZQ-28" value="限位" style="text;html=1;strokeColor=none;fillColor=none;align=center;verticalAlign=middle;whiteSpace=wrap;rounded=0;" vertex="1" parent="Xjq-Euk7-c84LHBLY0ZQ-1">
          <mxGeometry x="98" y="435" width="60" height="30" as="geometry" />
        </mxCell>
        <mxCell id="Xjq-Euk7-c84LHBLY0ZQ-29" value="1" style="ellipse;whiteSpace=wrap;html=1;aspect=fixed;" vertex="1" parent="Xjq-Euk7-c84LHBLY0ZQ-1">
          <mxGeometry x="148" y="440" width="20" height="20" as="geometry" />
        </mxCell>
        <mxCell id="Xjq-Euk7-c84LHBLY0ZQ-30" value="-" style="text;html=1;strokeColor=none;fillColor=none;align=center;verticalAlign=middle;whiteSpace=wrap;rounded=0;" vertex="1" parent="Xjq-Euk7-c84LHBLY0ZQ-1">
          <mxGeometry x="146" y="435" width="60" height="30" as="geometry" />
        </mxCell>
        <mxCell id="Xjq-Euk7-c84LHBLY0ZQ-31" value="10" style="ellipse;whiteSpace=wrap;html=1;aspect=fixed;" vertex="1" parent="Xjq-Euk7-c84LHBLY0ZQ-1">
          <mxGeometry x="186" y="440" width="20" height="20" as="geometry" />
        </mxCell>
        <mxCell id="Xjq-Euk7-c84LHBLY0ZQ-32" value="5" style="ellipse;whiteSpace=wrap;html=1;aspect=fixed;" vertex="1" parent="Xjq-Euk7-c84LHBLY0ZQ-1">
          <mxGeometry x="186" y="585" width="20" height="20" as="geometry" />
        </mxCell>
        <mxCell id="Xjq-Euk7-c84LHBLY0ZQ-33" value="XHome" style="text;html=1;strokeColor=none;fillColor=none;align=center;verticalAlign=middle;whiteSpace=wrap;rounded=0;" vertex="1" parent="Xjq-Euk7-c84LHBLY0ZQ-1">
          <mxGeometry x="226" y="580" width="60" height="30" as="geometry" />
        </mxCell>
        <mxCell id="Xjq-Euk7-c84LHBLY0ZQ-34" value="6" style="ellipse;whiteSpace=wrap;html=1;aspect=fixed;" vertex="1" parent="Xjq-Euk7-c84LHBLY0ZQ-1">
          <mxGeometry x="186" y="615" width="20" height="20" as="geometry" />
        </mxCell>
        <mxCell id="Xjq-Euk7-c84LHBLY0ZQ-35" value="Xlimit+" style="text;html=1;strokeColor=none;fillColor=none;align=center;verticalAlign=middle;whiteSpace=wrap;rounded=0;" vertex="1" parent="Xjq-Euk7-c84LHBLY0ZQ-1">
          <mxGeometry x="226" y="610" width="60" height="30" as="geometry" />
        </mxCell>
        <mxCell id="Xjq-Euk7-c84LHBLY0ZQ-36" value="7" style="ellipse;whiteSpace=wrap;html=1;aspect=fixed;" vertex="1" parent="Xjq-Euk7-c84LHBLY0ZQ-1">
          <mxGeometry x="186" y="645" width="20" height="20" as="geometry" />
        </mxCell>
        <mxCell id="Xjq-Euk7-c84LHBLY0ZQ-37" value="Wlimit-" style="text;html=1;strokeColor=none;fillColor=none;align=center;verticalAlign=middle;whiteSpace=wrap;rounded=0;" vertex="1" parent="Xjq-Euk7-c84LHBLY0ZQ-1">
          <mxGeometry x="226" y="640" width="60" height="30" as="geometry" />
        </mxCell>
        <mxCell id="Xjq-Euk7-c84LHBLY0ZQ-38" value="8" style="ellipse;whiteSpace=wrap;html=1;aspect=fixed;" vertex="1" parent="Xjq-Euk7-c84LHBLY0ZQ-1">
          <mxGeometry x="308" y="465" width="20" height="20" as="geometry" />
        </mxCell>
        <mxCell id="Xjq-Euk7-c84LHBLY0ZQ-39" value="WHome" style="text;html=1;strokeColor=none;fillColor=none;align=center;verticalAlign=middle;whiteSpace=wrap;rounded=0;" vertex="1" parent="Xjq-Euk7-c84LHBLY0ZQ-1">
          <mxGeometry x="348" y="460" width="60" height="30" as="geometry" />
        </mxCell>
        <mxCell id="Xjq-Euk7-c84LHBLY0ZQ-40" value="" style="endArrow=classic;html=1;rounded=0;" edge="1" parent="Xjq-Euk7-c84LHBLY0ZQ-1">
          <mxGeometry width="50" height="50" relative="1" as="geometry">
            <mxPoint x="550" y="297.71" as="sourcePoint" />
            <mxPoint x="550" y="247.70999999999998" as="targetPoint" />
          </mxGeometry>
        </mxCell>
        <mxCell id="Xjq-Euk7-c84LHBLY0ZQ-41" value="" style="endArrow=classic;html=1;rounded=0;" edge="1" parent="Xjq-Euk7-c84LHBLY0ZQ-1">
          <mxGeometry width="50" height="50" relative="1" as="geometry">
            <mxPoint x="550" y="300" as="sourcePoint" />
            <mxPoint x="580" y="270" as="targetPoint" />
          </mxGeometry>
        </mxCell>
        <mxCell id="Xjq-Euk7-c84LHBLY0ZQ-42" value="X" style="text;html=1;strokeColor=none;fillColor=none;align=center;verticalAlign=middle;whiteSpace=wrap;rounded=0;" vertex="1" parent="Xjq-Euk7-c84LHBLY0ZQ-1">
          <mxGeometry x="556" y="300" width="60" height="30" as="geometry" />
        </mxCell>
        <mxCell id="Xjq-Euk7-c84LHBLY0ZQ-43" value="Y" style="text;html=1;strokeColor=none;fillColor=none;align=center;verticalAlign=middle;whiteSpace=wrap;rounded=0;" vertex="1" parent="Xjq-Euk7-c84LHBLY0ZQ-1">
          <mxGeometry x="560" y="242.71000000000004" width="60" height="30" as="geometry" />
        </mxCell>
        <mxCell id="Xjq-Euk7-c84LHBLY0ZQ-44" value="Z" style="text;html=1;strokeColor=none;fillColor=none;align=center;verticalAlign=middle;whiteSpace=wrap;rounded=0;" vertex="1" parent="Xjq-Euk7-c84LHBLY0ZQ-1">
          <mxGeometry x="500" y="242.71000000000004" width="60" height="30" as="geometry" />
        </mxCell>
        <mxCell id="Xjq-Euk7-c84LHBLY0ZQ-45" value="9" style="ellipse;whiteSpace=wrap;html=1;aspect=fixed;" vertex="1" parent="Xjq-Euk7-c84LHBLY0ZQ-1">
          <mxGeometry x="308" y="495" width="20" height="20" as="geometry" />
        </mxCell>
        <mxCell id="Xjq-Euk7-c84LHBLY0ZQ-46" value="Wlimit+" style="text;html=1;strokeColor=none;fillColor=none;align=center;verticalAlign=middle;whiteSpace=wrap;rounded=0;" vertex="1" parent="Xjq-Euk7-c84LHBLY0ZQ-1">
          <mxGeometry x="348" y="490" width="60" height="30" as="geometry" />
        </mxCell>
        <mxCell id="Xjq-Euk7-c84LHBLY0ZQ-47" value="10" style="ellipse;whiteSpace=wrap;html=1;aspect=fixed;" vertex="1" parent="Xjq-Euk7-c84LHBLY0ZQ-1">
          <mxGeometry x="308" y="525" width="20" height="20" as="geometry" />
        </mxCell>
        <mxCell id="Xjq-Euk7-c84LHBLY0ZQ-48" value="Rlimt/RHome" style="text;html=1;strokeColor=none;fillColor=none;align=center;verticalAlign=middle;whiteSpace=wrap;rounded=0;" vertex="1" parent="Xjq-Euk7-c84LHBLY0ZQ-1">
          <mxGeometry x="348" y="520" width="60" height="30" as="geometry" />
        </mxCell>
        <mxCell id="Xjq-Euk7-c84LHBLY0ZQ-49" value="限位" style="text;html=1;strokeColor=none;fillColor=none;align=center;verticalAlign=middle;whiteSpace=wrap;rounded=0;" vertex="1" parent="Xjq-Euk7-c84LHBLY0ZQ-1">
          <mxGeometry x="409" y="440" width="60" height="30" as="geometry" />
        </mxCell>
        <mxCell id="Xjq-Euk7-c84LHBLY0ZQ-50" value="-" style="text;html=1;strokeColor=none;fillColor=none;align=center;verticalAlign=middle;whiteSpace=wrap;rounded=0;" vertex="1" parent="Xjq-Euk7-c84LHBLY0ZQ-1">
          <mxGeometry x="457" y="440" width="60" height="30" as="geometry" />
        </mxCell>
        <mxCell id="Xjq-Euk7-c84LHBLY0ZQ-51" value="11" style="ellipse;whiteSpace=wrap;html=1;aspect=fixed;" vertex="1" parent="Xjq-Euk7-c84LHBLY0ZQ-1">
          <mxGeometry x="457" y="445" width="20" height="20" as="geometry" />
        </mxCell>
        <mxCell id="Xjq-Euk7-c84LHBLY0ZQ-52" value="13" style="ellipse;whiteSpace=wrap;html=1;aspect=fixed;" vertex="1" parent="Xjq-Euk7-c84LHBLY0ZQ-1">
          <mxGeometry x="497" y="445" width="20" height="20" as="geometry" />
        </mxCell>
        <mxCell id="Xjq-Euk7-c84LHBLY0ZQ-53" value="11" style="ellipse;whiteSpace=wrap;html=1;aspect=fixed;" vertex="1" parent="Xjq-Euk7-c84LHBLY0ZQ-1">
          <mxGeometry x="110" y="310" width="20" height="20" as="geometry" />
        </mxCell>
        <mxCell id="Xjq-Euk7-c84LHBLY0ZQ-54" value="12" style="ellipse;whiteSpace=wrap;html=1;aspect=fixed;" vertex="1" parent="Xjq-Euk7-c84LHBLY0ZQ-1">
          <mxGeometry x="304" y="310" width="20" height="20" as="geometry" />
        </mxCell>
        <mxCell id="Xjq-Euk7-c84LHBLY0ZQ-55" value="13" style="ellipse;whiteSpace=wrap;html=1;aspect=fixed;" vertex="1" parent="Xjq-Euk7-c84LHBLY0ZQ-1">
          <mxGeometry x="444" y="310" width="20" height="20" as="geometry" />
        </mxCell>
        <mxCell id="Xjq-Euk7-c84LHBLY0ZQ-56" value="11" style="ellipse;whiteSpace=wrap;html=1;aspect=fixed;" vertex="1" parent="Xjq-Euk7-c84LHBLY0ZQ-1">
          <mxGeometry x="444" y="470" width="20" height="20" as="geometry" />
        </mxCell>
        <mxCell id="Xjq-Euk7-c84LHBLY0ZQ-57" value="左端上料光电I-IN3" style="text;html=1;strokeColor=none;fillColor=none;align=center;verticalAlign=middle;whiteSpace=wrap;rounded=0;" vertex="1" parent="Xjq-Euk7-c84LHBLY0ZQ-1">
          <mxGeometry x="484" y="465" width="104" height="30" as="geometry" />
        </mxCell>
        <mxCell id="Xjq-Euk7-c84LHBLY0ZQ-58" value="12" style="ellipse;whiteSpace=wrap;html=1;aspect=fixed;" vertex="1" parent="Xjq-Euk7-c84LHBLY0ZQ-1">
          <mxGeometry x="444" y="500" width="20" height="20" as="geometry" />
        </mxCell>
        <mxCell id="Xjq-Euk7-c84LHBLY0ZQ-59" value="中端到料光电I-IN2" style="text;html=1;strokeColor=none;fillColor=none;align=center;verticalAlign=middle;whiteSpace=wrap;rounded=0;" vertex="1" parent="Xjq-Euk7-c84LHBLY0ZQ-1">
          <mxGeometry x="484" y="495" width="104" height="30" as="geometry" />
        </mxCell>
        <mxCell id="Xjq-Euk7-c84LHBLY0ZQ-60" value="13" style="ellipse;whiteSpace=wrap;html=1;aspect=fixed;" vertex="1" parent="Xjq-Euk7-c84LHBLY0ZQ-1">
          <mxGeometry x="446" y="530" width="20" height="20" as="geometry" />
        </mxCell>
        <mxCell id="Xjq-Euk7-c84LHBLY0ZQ-61" value="右端出料光电I-IN0" style="text;html=1;strokeColor=none;fillColor=none;align=center;verticalAlign=middle;whiteSpace=wrap;rounded=0;" vertex="1" parent="Xjq-Euk7-c84LHBLY0ZQ-1">
          <mxGeometry x="486" y="525" width="104" height="30" as="geometry" />
        </mxCell>
        <mxCell id="Xjq-Euk7-c84LHBLY0ZQ-62" value="机台按钮" style="text;html=1;strokeColor=none;fillColor=none;align=center;verticalAlign=middle;whiteSpace=wrap;rounded=0;" vertex="1" parent="Xjq-Euk7-c84LHBLY0ZQ-1">
          <mxGeometry x="439" y="555" width="104" height="30" as="geometry" />
        </mxCell>
        <mxCell id="Xjq-Euk7-c84LHBLY0ZQ-63" value="Start 信号：启动" style="text;html=1;strokeColor=none;fillColor=none;align=center;verticalAlign=middle;whiteSpace=wrap;rounded=0;" vertex="1" parent="Xjq-Euk7-c84LHBLY0ZQ-1">
          <mxGeometry x="464" y="580" width="104" height="30" as="geometry" />
        </mxCell>
        <mxCell id="Xjq-Euk7-c84LHBLY0ZQ-64" value="Stop 信号：停止" style="text;html=1;strokeColor=none;fillColor=none;align=center;verticalAlign=middle;whiteSpace=wrap;rounded=0;" vertex="1" parent="Xjq-Euk7-c84LHBLY0ZQ-1">
          <mxGeometry x="466" y="605" width="104" height="30" as="geometry" />
        </mxCell>
        <mxCell id="Xjq-Euk7-c84LHBLY0ZQ-65" value="14" style="ellipse;whiteSpace=wrap;html=1;aspect=fixed;" vertex="1" parent="Xjq-Euk7-c84LHBLY0ZQ-1">
          <mxGeometry x="208" y="162.27999999999997" width="20" height="20" as="geometry" />
        </mxCell>
        <mxCell id="Xjq-Euk7-c84LHBLY0ZQ-66" value="15" style="ellipse;whiteSpace=wrap;html=1;aspect=fixed;" vertex="1" parent="Xjq-Euk7-c84LHBLY0ZQ-1">
          <mxGeometry x="334" y="162.27999999999997" width="20" height="20" as="geometry" />
        </mxCell>
        <mxCell id="Xjq-Euk7-c84LHBLY0ZQ-67" value="16" style="ellipse;whiteSpace=wrap;html=1;aspect=fixed;" vertex="1" parent="Xjq-Euk7-c84LHBLY0ZQ-1">
          <mxGeometry x="252" y="227.71000000000004" width="20" height="20" as="geometry" />
        </mxCell>
        <mxCell id="Xjq-Euk7-c84LHBLY0ZQ-68" value="步进" style="text;html=1;strokeColor=none;fillColor=none;align=center;verticalAlign=middle;whiteSpace=wrap;rounded=0;" vertex="1" parent="Xjq-Euk7-c84LHBLY0ZQ-1">
          <mxGeometry x="98" y="670" width="60" height="30" as="geometry" />
        </mxCell>
        <mxCell id="Xjq-Euk7-c84LHBLY0ZQ-69" value="14" style="ellipse;whiteSpace=wrap;html=1;aspect=fixed;" vertex="1" parent="Xjq-Euk7-c84LHBLY0ZQ-1">
          <mxGeometry x="148" y="675" width="20" height="20" as="geometry" />
        </mxCell>
        <mxCell id="Xjq-Euk7-c84LHBLY0ZQ-70" value="-" style="text;html=1;strokeColor=none;fillColor=none;align=center;verticalAlign=middle;whiteSpace=wrap;rounded=0;" vertex="1" parent="Xjq-Euk7-c84LHBLY0ZQ-1">
          <mxGeometry x="146" y="670" width="60" height="30" as="geometry" />
        </mxCell>
        <mxCell id="Xjq-Euk7-c84LHBLY0ZQ-71" value="16" style="ellipse;whiteSpace=wrap;html=1;aspect=fixed;" vertex="1" parent="Xjq-Euk7-c84LHBLY0ZQ-1">
          <mxGeometry x="186" y="675" width="20" height="20" as="geometry" />
        </mxCell>
        <mxCell id="Xjq-Euk7-c84LHBLY0ZQ-72" value="14" style="ellipse;whiteSpace=wrap;html=1;aspect=fixed;" vertex="1" parent="Xjq-Euk7-c84LHBLY0ZQ-1">
          <mxGeometry x="186" y="705" width="20" height="20" as="geometry" />
        </mxCell>
        <mxCell id="Xjq-Euk7-c84LHBLY0ZQ-73" value="驱动器：DM556&lt;br&gt;电机：MODEL 57HS22-A&lt;br&gt;1.8°/4.0A，转动惯量520" style="text;html=1;strokeColor=none;fillColor=none;align=center;verticalAlign=middle;whiteSpace=wrap;rounded=0;" vertex="1" parent="Xjq-Euk7-c84LHBLY0ZQ-1">
          <mxGeometry x="226" y="700" width="184" height="30" as="geometry" />
        </mxCell>
        <mxCell id="Xjq-Euk7-c84LHBLY0ZQ-74" value="15" style="ellipse;whiteSpace=wrap;html=1;aspect=fixed;" vertex="1" parent="Xjq-Euk7-c84LHBLY0ZQ-1">
          <mxGeometry x="186" y="755" width="20" height="20" as="geometry" />
        </mxCell>
        <mxCell id="Xjq-Euk7-c84LHBLY0ZQ-75" value="驱动器：DM556&lt;br&gt;电机：MODEL 57HS22-A&lt;br&gt;1.8°/4.0A，转动惯量520" style="text;html=1;strokeColor=none;fillColor=none;align=center;verticalAlign=middle;whiteSpace=wrap;rounded=0;" vertex="1" parent="Xjq-Euk7-c84LHBLY0ZQ-1">
          <mxGeometry x="226" y="750" width="184" height="30" as="geometry" />
        </mxCell>
        <mxCell id="Xjq-Euk7-c84LHBLY0ZQ-76" value="16" style="ellipse;whiteSpace=wrap;html=1;aspect=fixed;" vertex="1" parent="Xjq-Euk7-c84LHBLY0ZQ-1">
          <mxGeometry x="184" y="805" width="20" height="20" as="geometry" />
        </mxCell>
        <mxCell id="Xjq-Euk7-c84LHBLY0ZQ-77" value="驱动器：&amp;nbsp;&lt;br&gt;电机：Y07-59D1-17155&lt;br&gt;2-PHASE/1.8°" style="text;html=1;strokeColor=none;fillColor=none;align=center;verticalAlign=middle;whiteSpace=wrap;rounded=0;" vertex="1" parent="Xjq-Euk7-c84LHBLY0ZQ-1">
          <mxGeometry x="224" y="800" width="184" height="30" as="geometry" />
        </mxCell>
        <mxCell id="Xjq-Euk7-c84LHBLY0ZQ-78" value="b" style="swimlane;whiteSpace=wrap;html=1;" vertex="1" parent="1">
          <mxGeometry x="920" y="70" width="590" height="380" as="geometry" />
        </mxCell>
        <mxCell id="Xjq-Euk7-c84LHBLY0ZQ-79" value="" style="endArrow=classic;html=1;rounded=0;" edge="1" parent="Xjq-Euk7-c84LHBLY0ZQ-78">
          <mxGeometry width="50" height="50" relative="1" as="geometry">
            <mxPoint x="70" y="50" as="sourcePoint" />
            <mxPoint x="190" y="50" as="targetPoint" />
          </mxGeometry>
        </mxCell>
        <mxCell id="Xjq-Euk7-c84LHBLY0ZQ-80" value="" style="endArrow=classic;html=1;rounded=0;" edge="1" parent="Xjq-Euk7-c84LHBLY0ZQ-78">
          <mxGeometry width="50" height="50" relative="1" as="geometry">
            <mxPoint x="70" y="50" as="sourcePoint" />
            <mxPoint x="40" y="100" as="targetPoint" />
          </mxGeometry>
        </mxCell>
        <mxCell id="Xjq-Euk7-c84LHBLY0ZQ-81" value="" style="endArrow=classic;html=1;rounded=0;" edge="1" parent="Xjq-Euk7-c84LHBLY0ZQ-78">
          <mxGeometry width="50" height="50" relative="1" as="geometry">
            <mxPoint x="120" y="119" as="sourcePoint" />
            <mxPoint x="140" y="90" as="targetPoint" />
          </mxGeometry>
        </mxCell>
        <mxCell id="Xjq-Euk7-c84LHBLY0ZQ-82" value="" style="endArrow=classic;html=1;rounded=0;" edge="1" parent="Xjq-Euk7-c84LHBLY0ZQ-78">
          <mxGeometry width="50" height="50" relative="1" as="geometry">
            <mxPoint x="120" y="119" as="sourcePoint" />
            <mxPoint x="160" y="119" as="targetPoint" />
          </mxGeometry>
        </mxCell>
        <mxCell id="Xjq-Euk7-c84LHBLY0ZQ-83" value="" style="endArrow=classic;html=1;rounded=0;" edge="1" parent="Xjq-Euk7-c84LHBLY0ZQ-78">
          <mxGeometry width="50" height="50" relative="1" as="geometry">
            <mxPoint x="400" y="65" as="sourcePoint" />
            <mxPoint x="520" y="65" as="targetPoint" />
          </mxGeometry>
        </mxCell>
        <mxCell id="Xjq-Euk7-c84LHBLY0ZQ-84" value="&lt;p class=&quot;MsoNormal&quot;&gt;&lt;i&gt;O&lt;sub&gt;w&lt;/sub&gt;&lt;/i&gt;&lt;/p&gt;" style="text;html=1;strokeColor=none;fillColor=none;align=center;verticalAlign=middle;whiteSpace=wrap;rounded=0;" vertex="1" parent="Xjq-Euk7-c84LHBLY0ZQ-78">
          <mxGeometry x="40" y="20" width="60" height="30" as="geometry" />
        </mxCell>
        <mxCell id="Xjq-Euk7-c84LHBLY0ZQ-85" value="&lt;i&gt;X&lt;sub&gt;w&lt;/sub&gt;&lt;/i&gt;" style="text;html=1;strokeColor=none;fillColor=none;align=center;verticalAlign=middle;whiteSpace=wrap;rounded=0;" vertex="1" parent="Xjq-Euk7-c84LHBLY0ZQ-78">
          <mxGeometry x="160" y="20" width="60" height="30" as="geometry" />
        </mxCell>
        <mxCell id="Xjq-Euk7-c84LHBLY0ZQ-86" value="&lt;i&gt;Y&lt;sub&gt;w&lt;/sub&gt;&lt;/i&gt;" style="text;html=1;strokeColor=none;fillColor=none;align=center;verticalAlign=middle;whiteSpace=wrap;rounded=0;" vertex="1" parent="Xjq-Euk7-c84LHBLY0ZQ-78">
          <mxGeometry y="85" width="60" height="30" as="geometry" />
        </mxCell>
        <mxCell id="Xjq-Euk7-c84LHBLY0ZQ-87" value="&lt;i&gt;O&lt;sub&gt;c&lt;/sub&gt;&lt;/i&gt;" style="text;html=1;strokeColor=none;fillColor=none;align=center;verticalAlign=middle;whiteSpace=wrap;rounded=0;" vertex="1" parent="Xjq-Euk7-c84LHBLY0ZQ-78">
          <mxGeometry x="80" y="105" width="60" height="30" as="geometry" />
        </mxCell>
        <mxCell id="Xjq-Euk7-c84LHBLY0ZQ-88" value="" style="endArrow=classic;html=1;rounded=0;" edge="1" parent="Xjq-Euk7-c84LHBLY0ZQ-78">
          <mxGeometry width="50" height="50" relative="1" as="geometry">
            <mxPoint x="400" y="65" as="sourcePoint" />
            <mxPoint x="400" y="175" as="targetPoint" />
          </mxGeometry>
        </mxCell>
        <mxCell id="Xjq-Euk7-c84LHBLY0ZQ-89" value="&lt;i&gt;O&lt;/i&gt;" style="text;html=1;strokeColor=none;fillColor=none;align=center;verticalAlign=middle;whiteSpace=wrap;rounded=0;" vertex="1" parent="Xjq-Euk7-c84LHBLY0ZQ-78">
          <mxGeometry x="370" y="35" width="60" height="30" as="geometry" />
        </mxCell>
        <mxCell id="Xjq-Euk7-c84LHBLY0ZQ-90" value="&lt;i&gt;U&lt;/i&gt;" style="text;html=1;strokeColor=none;fillColor=none;align=center;verticalAlign=middle;whiteSpace=wrap;rounded=0;" vertex="1" parent="Xjq-Euk7-c84LHBLY0ZQ-78">
          <mxGeometry x="510" y="90" width="60" height="30" as="geometry" />
        </mxCell>
        <mxCell id="Xjq-Euk7-c84LHBLY0ZQ-91" value="&lt;i&gt;V&lt;/i&gt;" style="text;html=1;strokeColor=none;fillColor=none;align=center;verticalAlign=middle;whiteSpace=wrap;rounded=0;" vertex="1" parent="Xjq-Euk7-c84LHBLY0ZQ-78">
          <mxGeometry x="420" y="180" width="60" height="30" as="geometry" />
        </mxCell>
        <mxCell id="Xjq-Euk7-c84LHBLY0ZQ-92" value="" style="endArrow=classic;html=1;rounded=0;" edge="1" parent="Xjq-Euk7-c84LHBLY0ZQ-78">
          <mxGeometry width="50" height="50" relative="1" as="geometry">
            <mxPoint x="380" y="115" as="sourcePoint" />
            <mxPoint x="540" y="115" as="targetPoint" />
          </mxGeometry>
        </mxCell>
        <mxCell id="Xjq-Euk7-c84LHBLY0ZQ-93" value="" style="endArrow=classic;html=1;rounded=0;" edge="1" parent="Xjq-Euk7-c84LHBLY0ZQ-78">
          <mxGeometry width="50" height="50" relative="1" as="geometry">
            <mxPoint x="460" y="55" as="sourcePoint" />
            <mxPoint x="460" y="195" as="targetPoint" />
          </mxGeometry>
        </mxCell>
        <mxCell id="Xjq-Euk7-c84LHBLY0ZQ-94" value="&lt;i&gt;X&lt;sub&gt;c&lt;/sub&gt;&lt;/i&gt;" style="text;html=1;strokeColor=none;fillColor=none;align=center;verticalAlign=middle;whiteSpace=wrap;rounded=0;" vertex="1" parent="Xjq-Euk7-c84LHBLY0ZQ-78">
          <mxGeometry x="490" y="35" width="60" height="30" as="geometry" />
        </mxCell>
        <mxCell id="Xjq-Euk7-c84LHBLY0ZQ-95" value="&lt;i&gt;Y&lt;sub&gt;c&lt;/sub&gt;&lt;/i&gt;" style="text;html=1;strokeColor=none;fillColor=none;align=center;verticalAlign=middle;whiteSpace=wrap;rounded=0;" vertex="1" parent="Xjq-Euk7-c84LHBLY0ZQ-78">
          <mxGeometry x="360" y="160" width="60" height="30" as="geometry" />
        </mxCell>
        <mxCell id="Xjq-Euk7-c84LHBLY0ZQ-96" value="&lt;i&gt;O&lt;sub&gt;c&lt;/sub&gt;&lt;/i&gt;" style="text;html=1;strokeColor=none;fillColor=none;align=center;verticalAlign=middle;whiteSpace=wrap;rounded=0;" vertex="1" parent="Xjq-Euk7-c84LHBLY0ZQ-78">
          <mxGeometry x="420" y="85" width="60" height="30" as="geometry" />
        </mxCell>
        <mxCell id="Xjq-Euk7-c84LHBLY0ZQ-97" value="(u&lt;sub&gt;0&lt;/sub&gt;,v&lt;sub&gt;0&lt;/sub&gt;)" style="text;html=1;strokeColor=none;fillColor=none;align=center;verticalAlign=middle;whiteSpace=wrap;rounded=0;" vertex="1" parent="Xjq-Euk7-c84LHBLY0ZQ-78">
          <mxGeometry x="450" y="115" width="60" height="30" as="geometry" />
        </mxCell>
        <mxCell id="Xjq-Euk7-c84LHBLY0ZQ-98" value="&lt;i&gt;Y&lt;sub&gt;c&lt;/sub&gt;&lt;/i&gt;" style="text;html=1;strokeColor=none;fillColor=none;align=center;verticalAlign=middle;whiteSpace=wrap;rounded=0;" vertex="1" parent="Xjq-Euk7-c84LHBLY0ZQ-78">
          <mxGeometry x="140" y="105" width="60" height="30" as="geometry" />
        </mxCell>
        <mxCell id="Xjq-Euk7-c84LHBLY0ZQ-99" value="&lt;i&gt;X&lt;sub&gt;c&lt;/sub&gt;&lt;/i&gt;" style="text;html=1;strokeColor=none;fillColor=none;align=center;verticalAlign=middle;whiteSpace=wrap;rounded=0;" vertex="1" parent="Xjq-Euk7-c84LHBLY0ZQ-78">
          <mxGeometry x="90" y="75" width="60" height="30" as="geometry" />
        </mxCell>
        <mxCell id="Xjq-Euk7-c84LHBLY0ZQ-100" value="" style="endArrow=classic;html=1;rounded=0;exitX=0.5;exitY=1;exitDx=0;exitDy=0;" edge="1" parent="Xjq-Euk7-c84LHBLY0ZQ-78" source="Xjq-Euk7-c84LHBLY0ZQ-84">
          <mxGeometry width="50" height="50" relative="1" as="geometry">
            <mxPoint x="70" y="185" as="sourcePoint" />
            <mxPoint x="70" y="135" as="targetPoint" />
          </mxGeometry>
        </mxCell>
        <mxCell id="Xjq-Euk7-c84LHBLY0ZQ-101" value="" style="endArrow=classic;html=1;rounded=0;" edge="1" parent="Xjq-Euk7-c84LHBLY0ZQ-78">
          <mxGeometry width="50" height="50" relative="1" as="geometry">
            <mxPoint x="120" y="120" as="sourcePoint" />
            <mxPoint x="120" y="150" as="targetPoint" />
          </mxGeometry>
        </mxCell>
        <mxCell id="Xjq-Euk7-c84LHBLY0ZQ-102" value="Z&lt;sub&gt;c&lt;/sub&gt;" style="text;html=1;strokeColor=none;fillColor=none;align=center;verticalAlign=middle;whiteSpace=wrap;rounded=0;" vertex="1" parent="Xjq-Euk7-c84LHBLY0ZQ-78">
          <mxGeometry x="80" y="145" width="60" height="30" as="geometry" />
        </mxCell>
        <mxCell id="Xjq-Euk7-c84LHBLY0ZQ-103" value="Z&lt;sub&gt;w&lt;/sub&gt;" style="text;html=1;strokeColor=none;fillColor=none;align=center;verticalAlign=middle;whiteSpace=wrap;rounded=0;" vertex="1" parent="Xjq-Euk7-c84LHBLY0ZQ-78">
          <mxGeometry x="30" y="115" width="60" height="30" as="geometry" />
        </mxCell>
        <mxCell id="Xjq-Euk7-c84LHBLY0ZQ-104" value="" style="endArrow=classic;html=1;rounded=0;" edge="1" parent="Xjq-Euk7-c84LHBLY0ZQ-78">
          <mxGeometry width="50" height="50" relative="1" as="geometry">
            <mxPoint x="70" y="200" as="sourcePoint" />
            <mxPoint x="240" y="200" as="targetPoint" />
          </mxGeometry>
        </mxCell>
        <mxCell id="Xjq-Euk7-c84LHBLY0ZQ-105" value="" style="endArrow=classic;html=1;rounded=0;" edge="1" parent="Xjq-Euk7-c84LHBLY0ZQ-78">
          <mxGeometry width="50" height="50" relative="1" as="geometry">
            <mxPoint x="70" y="200" as="sourcePoint" />
            <mxPoint x="40" y="250" as="targetPoint" />
          </mxGeometry>
        </mxCell>
        <mxCell id="Xjq-Euk7-c84LHBLY0ZQ-106" value="" style="endArrow=classic;html=1;rounded=0;" edge="1" parent="Xjq-Euk7-c84LHBLY0ZQ-78">
          <mxGeometry width="50" height="50" relative="1" as="geometry">
            <mxPoint x="90" y="279" as="sourcePoint" />
            <mxPoint x="110" y="250" as="targetPoint" />
          </mxGeometry>
        </mxCell>
        <mxCell id="Xjq-Euk7-c84LHBLY0ZQ-107" value="" style="endArrow=classic;html=1;rounded=0;" edge="1" parent="Xjq-Euk7-c84LHBLY0ZQ-78">
          <mxGeometry width="50" height="50" relative="1" as="geometry">
            <mxPoint x="90" y="279" as="sourcePoint" />
            <mxPoint x="130" y="279" as="targetPoint" />
          </mxGeometry>
        </mxCell>
        <mxCell id="Xjq-Euk7-c84LHBLY0ZQ-108" value="&lt;p class=&quot;MsoNormal&quot;&gt;&lt;i&gt;O&lt;sub&gt;w&lt;/sub&gt;&lt;/i&gt;&lt;/p&gt;" style="text;html=1;strokeColor=none;fillColor=none;align=center;verticalAlign=middle;whiteSpace=wrap;rounded=0;" vertex="1" parent="Xjq-Euk7-c84LHBLY0ZQ-78">
          <mxGeometry x="40" y="170" width="60" height="30" as="geometry" />
        </mxCell>
        <mxCell id="Xjq-Euk7-c84LHBLY0ZQ-109" value="&lt;i&gt;X&lt;sub&gt;w&lt;/sub&gt;&lt;/i&gt;" style="text;html=1;strokeColor=none;fillColor=none;align=center;verticalAlign=middle;whiteSpace=wrap;rounded=0;" vertex="1" parent="Xjq-Euk7-c84LHBLY0ZQ-78">
          <mxGeometry x="150" y="170" width="60" height="30" as="geometry" />
        </mxCell>
        <mxCell id="Xjq-Euk7-c84LHBLY0ZQ-110" value="&lt;i&gt;Y&lt;sub&gt;w&lt;/sub&gt;&lt;/i&gt;" style="text;html=1;strokeColor=none;fillColor=none;align=center;verticalAlign=middle;whiteSpace=wrap;rounded=0;" vertex="1" parent="Xjq-Euk7-c84LHBLY0ZQ-78">
          <mxGeometry y="230" width="60" height="30" as="geometry" />
        </mxCell>
        <mxCell id="Xjq-Euk7-c84LHBLY0ZQ-111" value="&lt;i&gt;O&lt;sub&gt;c1&lt;/sub&gt;&lt;/i&gt;" style="text;html=1;strokeColor=none;fillColor=none;align=center;verticalAlign=middle;whiteSpace=wrap;rounded=0;" vertex="1" parent="Xjq-Euk7-c84LHBLY0ZQ-78">
          <mxGeometry x="70" y="255" width="20" height="15" as="geometry" />
        </mxCell>
        <mxCell id="Xjq-Euk7-c84LHBLY0ZQ-112" value="&lt;i&gt;Y&lt;sub&gt;c1&lt;/sub&gt;&lt;/i&gt;" style="text;html=1;strokeColor=none;fillColor=none;align=center;verticalAlign=middle;whiteSpace=wrap;rounded=0;" vertex="1" parent="Xjq-Euk7-c84LHBLY0ZQ-78">
          <mxGeometry x="130" y="272.5" width="20" height="15" as="geometry" />
        </mxCell>
        <mxCell id="Xjq-Euk7-c84LHBLY0ZQ-113" value="&lt;i&gt;X&lt;sub&gt;c1&lt;/sub&gt;&lt;/i&gt;" style="text;html=1;strokeColor=none;fillColor=none;align=center;verticalAlign=middle;whiteSpace=wrap;rounded=0;" vertex="1" parent="Xjq-Euk7-c84LHBLY0ZQ-78">
          <mxGeometry x="100" y="238.5" width="20" height="15" as="geometry" />
        </mxCell>
        <mxCell id="Xjq-Euk7-c84LHBLY0ZQ-114" value="" style="endArrow=classic;html=1;rounded=0;exitX=0.5;exitY=1;exitDx=0;exitDy=0;" edge="1" parent="Xjq-Euk7-c84LHBLY0ZQ-78" source="Xjq-Euk7-c84LHBLY0ZQ-108">
          <mxGeometry width="50" height="50" relative="1" as="geometry">
            <mxPoint x="70" y="335" as="sourcePoint" />
            <mxPoint x="70" y="285" as="targetPoint" />
          </mxGeometry>
        </mxCell>
        <mxCell id="Xjq-Euk7-c84LHBLY0ZQ-115" value="" style="endArrow=classic;html=1;rounded=0;" edge="1" parent="Xjq-Euk7-c84LHBLY0ZQ-78">
          <mxGeometry width="50" height="50" relative="1" as="geometry">
            <mxPoint x="90" y="280" as="sourcePoint" />
            <mxPoint x="90" y="310" as="targetPoint" />
          </mxGeometry>
        </mxCell>
        <mxCell id="Xjq-Euk7-c84LHBLY0ZQ-116" value="Z&lt;sub&gt;c1&lt;/sub&gt;" style="text;html=1;strokeColor=none;fillColor=none;align=center;verticalAlign=middle;whiteSpace=wrap;rounded=0;" vertex="1" parent="Xjq-Euk7-c84LHBLY0ZQ-78">
          <mxGeometry x="70" y="300.25" width="30" height="25" as="geometry" />
        </mxCell>
        <mxCell id="Xjq-Euk7-c84LHBLY0ZQ-117" value="Z&lt;sub&gt;w&lt;/sub&gt;" style="text;html=1;strokeColor=none;fillColor=none;align=center;verticalAlign=middle;whiteSpace=wrap;rounded=0;" vertex="1" parent="Xjq-Euk7-c84LHBLY0ZQ-78">
          <mxGeometry x="50" y="275" width="20" height="20" as="geometry" />
        </mxCell>
        <mxCell id="Xjq-Euk7-c84LHBLY0ZQ-118" value="" style="endArrow=classic;html=1;rounded=0;" edge="1" parent="Xjq-Euk7-c84LHBLY0ZQ-78">
          <mxGeometry width="50" height="50" relative="1" as="geometry">
            <mxPoint x="168" y="280.5" as="sourcePoint" />
            <mxPoint x="188" y="251.5" as="targetPoint" />
          </mxGeometry>
        </mxCell>
        <mxCell id="Xjq-Euk7-c84LHBLY0ZQ-119" value="" style="endArrow=classic;html=1;rounded=0;" edge="1" parent="Xjq-Euk7-c84LHBLY0ZQ-78">
          <mxGeometry width="50" height="50" relative="1" as="geometry">
            <mxPoint x="168" y="280.5" as="sourcePoint" />
            <mxPoint x="208" y="280.5" as="targetPoint" />
          </mxGeometry>
        </mxCell>
        <mxCell id="Xjq-Euk7-c84LHBLY0ZQ-120" value="&lt;i&gt;O&lt;sub&gt;c2&lt;/sub&gt;&lt;/i&gt;" style="text;html=1;strokeColor=none;fillColor=none;align=center;verticalAlign=middle;whiteSpace=wrap;rounded=0;" vertex="1" parent="Xjq-Euk7-c84LHBLY0ZQ-78">
          <mxGeometry x="150" y="262.5" width="20" height="12.5" as="geometry" />
        </mxCell>
        <mxCell id="Xjq-Euk7-c84LHBLY0ZQ-121" value="&lt;i&gt;Y&lt;sub&gt;c2&lt;/sub&gt;&lt;/i&gt;" style="text;html=1;strokeColor=none;fillColor=none;align=center;verticalAlign=middle;whiteSpace=wrap;rounded=0;" vertex="1" parent="Xjq-Euk7-c84LHBLY0ZQ-78">
          <mxGeometry x="210" y="275" width="20" height="12.5" as="geometry" />
        </mxCell>
        <mxCell id="Xjq-Euk7-c84LHBLY0ZQ-122" value="&lt;i&gt;X&lt;sub&gt;c2&lt;/sub&gt;&lt;/i&gt;" style="text;html=1;strokeColor=none;fillColor=none;align=center;verticalAlign=middle;whiteSpace=wrap;rounded=0;" vertex="1" parent="Xjq-Euk7-c84LHBLY0ZQ-78">
          <mxGeometry x="180" y="237.5" width="20" height="22.5" as="geometry" />
        </mxCell>
        <mxCell id="Xjq-Euk7-c84LHBLY0ZQ-123" value="" style="endArrow=classic;html=1;rounded=0;" edge="1" parent="Xjq-Euk7-c84LHBLY0ZQ-78">
          <mxGeometry width="50" height="50" relative="1" as="geometry">
            <mxPoint x="168" y="281.5" as="sourcePoint" />
            <mxPoint x="168" y="311.5" as="targetPoint" />
          </mxGeometry>
        </mxCell>
        <mxCell id="Xjq-Euk7-c84LHBLY0ZQ-124" value="Z&lt;sub&gt;c2&lt;/sub&gt;" style="text;html=1;strokeColor=none;fillColor=none;align=center;verticalAlign=middle;whiteSpace=wrap;rounded=0;" vertex="1" parent="Xjq-Euk7-c84LHBLY0ZQ-78">
          <mxGeometry x="150" y="306.5" width="20" height="12.5" as="geometry" />
        </mxCell>
        <mxCell id="Xjq-Euk7-c84LHBLY0ZQ-125" value="" style="endArrow=none;dashed=1;html=1;rounded=0;" edge="1" parent="Xjq-Euk7-c84LHBLY0ZQ-78">
          <mxGeometry width="50" height="50" relative="1" as="geometry">
            <mxPoint x="200" y="240" as="sourcePoint" />
            <mxPoint x="230" y="200" as="targetPoint" />
          </mxGeometry>
        </mxCell>
        <mxCell id="Xjq-Euk7-c84LHBLY0ZQ-126" value="" style="endArrow=none;dashed=1;html=1;rounded=0;" edge="1" parent="Xjq-Euk7-c84LHBLY0ZQ-78">
          <mxGeometry width="50" height="50" relative="1" as="geometry">
            <mxPoint x="50" y="240" as="sourcePoint" />
            <mxPoint x="200" y="240" as="targetPoint" />
          </mxGeometry>
        </mxCell>
        <mxCell id="Xjq-Euk7-c84LHBLY0ZQ-127" value="" style="endArrow=none;html=1;rounded=0;dashed=1;" edge="1" parent="Xjq-Euk7-c84LHBLY0ZQ-78">
          <mxGeometry width="50" height="50" relative="1" as="geometry">
            <mxPoint x="131" y="259" as="sourcePoint" />
            <mxPoint x="101" y="259" as="targetPoint" />
          </mxGeometry>
        </mxCell>
        <mxCell id="Xjq-Euk7-c84LHBLY0ZQ-128" value="" style="endArrow=none;dashed=1;html=1;rounded=0;" edge="1" parent="Xjq-Euk7-c84LHBLY0ZQ-78">
          <mxGeometry width="50" height="50" relative="1" as="geometry">
            <mxPoint x="116" y="279" as="sourcePoint" />
            <mxPoint x="131" y="259" as="targetPoint" />
          </mxGeometry>
        </mxCell>
        <mxCell id="Xjq-Euk7-c84LHBLY0ZQ-129" value="" style="endArrow=none;html=1;rounded=0;dashed=1;" edge="1" parent="Xjq-Euk7-c84LHBLY0ZQ-78">
          <mxGeometry width="50" height="50" relative="1" as="geometry">
            <mxPoint x="210" y="260" as="sourcePoint" />
            <mxPoint x="180" y="260" as="targetPoint" />
          </mxGeometry>
        </mxCell>
        <mxCell id="Xjq-Euk7-c84LHBLY0ZQ-130" value="" style="endArrow=none;dashed=1;html=1;rounded=0;" edge="1" parent="Xjq-Euk7-c84LHBLY0ZQ-78">
          <mxGeometry width="50" height="50" relative="1" as="geometry">
            <mxPoint x="195" y="280" as="sourcePoint" />
            <mxPoint x="210" y="260" as="targetPoint" />
          </mxGeometry>
        </mxCell>
        <mxCell id="Xjq-Euk7-c84LHBLY0ZQ-131" value="&lt;font color=&quot;#ff3d1f&quot; style=&quot;font-size: 18px;&quot;&gt;.&lt;/font&gt;" style="text;html=1;strokeColor=none;fillColor=none;align=center;verticalAlign=middle;whiteSpace=wrap;rounded=0;" vertex="1" parent="Xjq-Euk7-c84LHBLY0ZQ-78">
          <mxGeometry x="153" y="210" width="20" height="20" as="geometry" />
        </mxCell>
        <mxCell id="Xjq-Euk7-c84LHBLY0ZQ-132" value="P&lt;sub&gt;w&lt;/sub&gt;" style="text;html=1;strokeColor=none;fillColor=none;align=center;verticalAlign=middle;whiteSpace=wrap;rounded=0;" vertex="1" parent="Xjq-Euk7-c84LHBLY0ZQ-78">
          <mxGeometry x="140" y="200" width="17" height="20" as="geometry" />
        </mxCell>
        <mxCell id="Xjq-Euk7-c84LHBLY0ZQ-133" value="" style="endArrow=none;html=1;rounded=0;dashed=1;dashPattern=8 8;exitX=0;exitY=1;exitDx=0;exitDy=0;endFill=0;" edge="1" parent="Xjq-Euk7-c84LHBLY0ZQ-78" source="Xjq-Euk7-c84LHBLY0ZQ-131">
          <mxGeometry width="50" height="50" relative="1" as="geometry">
            <mxPoint x="250" y="270" as="sourcePoint" />
            <mxPoint x="110" y="270" as="targetPoint" />
          </mxGeometry>
        </mxCell>
        <mxCell id="Xjq-Euk7-c84LHBLY0ZQ-134" value="" style="endArrow=none;html=1;rounded=0;dashed=1;dashPattern=8 8;exitX=0.874;exitY=1.112;exitDx=0;exitDy=0;endFill=0;exitPerimeter=0;" edge="1" parent="Xjq-Euk7-c84LHBLY0ZQ-78" source="Xjq-Euk7-c84LHBLY0ZQ-131">
          <mxGeometry width="50" height="50" relative="1" as="geometry">
            <mxPoint x="160" y="230" as="sourcePoint" />
            <mxPoint x="180" y="270" as="targetPoint" />
          </mxGeometry>
        </mxCell>
        <mxCell id="Xjq-Euk7-c84LHBLY0ZQ-135" value="&lt;font color=&quot;#ff3d1f&quot; style=&quot;font-size: 18px;&quot;&gt;.&lt;/font&gt;" style="text;html=1;strokeColor=none;fillColor=none;align=center;verticalAlign=middle;whiteSpace=wrap;rounded=0;" vertex="1" parent="Xjq-Euk7-c84LHBLY0ZQ-78">
          <mxGeometry x="100" y="252.5" width="20" height="20" as="geometry" />
        </mxCell>
        <mxCell id="Xjq-Euk7-c84LHBLY0ZQ-136" value="&lt;font color=&quot;#ff3d1f&quot; style=&quot;font-size: 18px;&quot;&gt;.&lt;/font&gt;" style="text;html=1;strokeColor=none;fillColor=none;align=center;verticalAlign=middle;whiteSpace=wrap;rounded=0;" vertex="1" parent="Xjq-Euk7-c84LHBLY0ZQ-78">
          <mxGeometry x="172" y="253.5" width="20" height="20" as="geometry" />
        </mxCell>
        <mxCell id="Xjq-Euk7-c84LHBLY0ZQ-137" value="P&lt;span style=&quot;font-size: 10px;&quot;&gt;&lt;sub&gt;c1&lt;/sub&gt;&lt;/span&gt;" style="text;html=1;strokeColor=none;fillColor=none;align=center;verticalAlign=middle;whiteSpace=wrap;rounded=0;" vertex="1" parent="Xjq-Euk7-c84LHBLY0ZQ-78">
          <mxGeometry x="100" y="260.25" width="17" height="20" as="geometry" />
        </mxCell>
        <mxCell id="Xjq-Euk7-c84LHBLY0ZQ-138" value="P&lt;span style=&quot;font-size: 10px;&quot;&gt;&lt;sub&gt;c2&lt;/sub&gt;&lt;/span&gt;" style="text;html=1;strokeColor=none;fillColor=none;align=center;verticalAlign=middle;whiteSpace=wrap;rounded=0;" vertex="1" parent="Xjq-Euk7-c84LHBLY0ZQ-78">
          <mxGeometry x="183" y="260" width="17" height="20" as="geometry" />
        </mxCell>
        <mxCell id="Xjq-Euk7-c84LHBLY0ZQ-139" value="" style="endArrow=open;startArrow=none;html=1;rounded=0;dashed=1;dashPattern=12 12;edgeStyle=orthogonalEdgeStyle;endFill=0;startFill=0;elbow=vertical;curved=1;" edge="1" parent="Xjq-Euk7-c84LHBLY0ZQ-78">
          <mxGeometry width="50" height="50" relative="1" as="geometry">
            <mxPoint x="90" y="340" as="sourcePoint" />
            <mxPoint x="170" y="341" as="targetPoint" />
          </mxGeometry>
        </mxCell>
        <mxCell id="Xjq-Euk7-c84LHBLY0ZQ-140" value="X" style="edgeLabel;html=1;align=center;verticalAlign=middle;resizable=0;points=[];" vertex="1" connectable="0" parent="Xjq-Euk7-c84LHBLY0ZQ-139">
          <mxGeometry x="-0.0349" y="-1" relative="1" as="geometry">
            <mxPoint as="offset" />
          </mxGeometry>
        </mxCell>
        <mxCell id="Xjq-Euk7-c84LHBLY0ZQ-141" value="几何误差模型流程" style="swimlane;whiteSpace=wrap;html=1;" vertex="1" parent="1">
          <mxGeometry x="950" y="540" width="570" height="770" as="geometry" />
        </mxCell>
        <mxCell id="Xjq-Euk7-c84LHBLY0ZQ-142" value="" style="edgeStyle=orthogonalEdgeStyle;rounded=0;orthogonalLoop=1;jettySize=auto;html=1;" edge="1" parent="Xjq-Euk7-c84LHBLY0ZQ-141" source="Xjq-Euk7-c84LHBLY0ZQ-143" target="Xjq-Euk7-c84LHBLY0ZQ-145">
          <mxGeometry relative="1" as="geometry" />
        </mxCell>
        <mxCell id="Xjq-Euk7-c84LHBLY0ZQ-143" value="多体系统理论" style="rounded=1;whiteSpace=wrap;html=1;" vertex="1" parent="Xjq-Euk7-c84LHBLY0ZQ-141">
          <mxGeometry x="225" y="60" width="120" height="60" as="geometry" />
        </mxCell>
        <mxCell id="Xjq-Euk7-c84LHBLY0ZQ-144" value="" style="edgeStyle=orthogonalEdgeStyle;rounded=0;orthogonalLoop=1;jettySize=auto;html=1;" edge="1" parent="Xjq-Euk7-c84LHBLY0ZQ-141" source="Xjq-Euk7-c84LHBLY0ZQ-145" target="Xjq-Euk7-c84LHBLY0ZQ-147">
          <mxGeometry relative="1" as="geometry" />
        </mxCell>
        <mxCell id="Xjq-Euk7-c84LHBLY0ZQ-145" value="加工机械抽象为多体系统" style="rounded=1;whiteSpace=wrap;html=1;" vertex="1" parent="Xjq-Euk7-c84LHBLY0ZQ-141">
          <mxGeometry x="225" y="165" width="120" height="60" as="geometry" />
        </mxCell>
        <mxCell id="Xjq-Euk7-c84LHBLY0ZQ-146" value="" style="edgeStyle=orthogonalEdgeStyle;rounded=0;orthogonalLoop=1;jettySize=auto;html=1;" edge="1" parent="Xjq-Euk7-c84LHBLY0ZQ-141" source="Xjq-Euk7-c84LHBLY0ZQ-147" target="Xjq-Euk7-c84LHBLY0ZQ-149">
          <mxGeometry relative="1" as="geometry" />
        </mxCell>
        <mxCell id="Xjq-Euk7-c84LHBLY0ZQ-147" value="构建拓扑图和低序列阵列" style="rounded=1;whiteSpace=wrap;html=1;" vertex="1" parent="Xjq-Euk7-c84LHBLY0ZQ-141">
          <mxGeometry x="225" y="260" width="120" height="60" as="geometry" />
        </mxCell>
        <mxCell id="Xjq-Euk7-c84LHBLY0ZQ-148" value="" style="edgeStyle=orthogonalEdgeStyle;rounded=0;orthogonalLoop=1;jettySize=auto;html=1;" edge="1" parent="Xjq-Euk7-c84LHBLY0ZQ-141" source="Xjq-Euk7-c84LHBLY0ZQ-149" target="Xjq-Euk7-c84LHBLY0ZQ-151">
          <mxGeometry relative="1" as="geometry" />
        </mxCell>
        <mxCell id="Xjq-Euk7-c84LHBLY0ZQ-149" value="描述位姿" style="rounded=1;whiteSpace=wrap;html=1;" vertex="1" parent="Xjq-Euk7-c84LHBLY0ZQ-141">
          <mxGeometry x="225" y="360" width="120" height="60" as="geometry" />
        </mxCell>
        <mxCell id="Xjq-Euk7-c84LHBLY0ZQ-150" value="" style="edgeStyle=orthogonalEdgeStyle;rounded=0;orthogonalLoop=1;jettySize=auto;html=1;" edge="1" parent="Xjq-Euk7-c84LHBLY0ZQ-141" source="Xjq-Euk7-c84LHBLY0ZQ-151" target="Xjq-Euk7-c84LHBLY0ZQ-153">
          <mxGeometry relative="1" as="geometry" />
        </mxCell>
        <mxCell id="Xjq-Euk7-c84LHBLY0ZQ-151" value="误差运动学分析" style="rounded=1;whiteSpace=wrap;html=1;" vertex="1" parent="Xjq-Euk7-c84LHBLY0ZQ-141">
          <mxGeometry x="225" y="460" width="120" height="60" as="geometry" />
        </mxCell>
        <mxCell id="Xjq-Euk7-c84LHBLY0ZQ-152" value="" style="edgeStyle=orthogonalEdgeStyle;rounded=0;orthogonalLoop=1;jettySize=auto;html=1;" edge="1" parent="Xjq-Euk7-c84LHBLY0ZQ-141" source="Xjq-Euk7-c84LHBLY0ZQ-153" target="Xjq-Euk7-c84LHBLY0ZQ-154">
          <mxGeometry relative="1" as="geometry" />
        </mxCell>
        <mxCell id="Xjq-Euk7-c84LHBLY0ZQ-153" value="误差模型" style="rounded=1;whiteSpace=wrap;html=1;" vertex="1" parent="Xjq-Euk7-c84LHBLY0ZQ-141">
          <mxGeometry x="225" y="559" width="120" height="60" as="geometry" />
        </mxCell>
        <mxCell id="Xjq-Euk7-c84LHBLY0ZQ-154" value="标定误差" style="rounded=1;whiteSpace=wrap;html=1;" vertex="1" parent="Xjq-Euk7-c84LHBLY0ZQ-141">
          <mxGeometry x="225" y="660" width="120" height="60" as="geometry" />
        </mxCell>
        <mxCell id="Xjq-Euk7-c84LHBLY0ZQ-155" value="模型简图" style="swimlane;whiteSpace=wrap;html=1;" vertex="1" parent="1">
          <mxGeometry x="960" y="1440" width="550" height="370" as="geometry" />
        </mxCell>
        <mxCell id="Xjq-Euk7-c84LHBLY0ZQ-156" value="" style="shape=cube;whiteSpace=wrap;html=1;boundedLbl=1;backgroundOutline=1;darkOpacity=0.05;darkOpacity2=0.1;direction=east;flipH=1;" vertex="1" parent="Xjq-Euk7-c84LHBLY0ZQ-155">
          <mxGeometry x="100" y="80" width="390" height="280" as="geometry" />
        </mxCell>
        <mxCell id="Xjq-Euk7-c84LHBLY0ZQ-225" value="" style="rounded=0;whiteSpace=wrap;html=1;" vertex="1" parent="Xjq-Euk7-c84LHBLY0ZQ-155">
          <mxGeometry x="271.25" y="190" width="13.5" height="18.78" as="geometry" />
        </mxCell>
        <mxCell id="Xjq-Euk7-c84LHBLY0ZQ-157" value="" style="shape=cube;whiteSpace=wrap;html=1;boundedLbl=1;backgroundOutline=1;darkOpacity=0.05;darkOpacity2=0.1;flipH=0;direction=west;flipV=1;rotation=0;size=70;" vertex="1" parent="Xjq-Euk7-c84LHBLY0ZQ-155">
          <mxGeometry x="306" y="140" width="104" height="95.43" as="geometry" />
        </mxCell>
        <mxCell id="Xjq-Euk7-c84LHBLY0ZQ-158" value="" style="shape=cube;whiteSpace=wrap;html=1;boundedLbl=1;backgroundOutline=1;darkOpacity=0.05;darkOpacity2=0.1;flipV=0;flipH=1;" vertex="1" parent="Xjq-Euk7-c84LHBLY0ZQ-155">
          <mxGeometry x="220" y="147.71999999999997" width="170" height="40" as="geometry" />
        </mxCell>
        <mxCell id="Xjq-Euk7-c84LHBLY0ZQ-160" value="" style="endArrow=none;html=1;rounded=0;edgeStyle=orthogonalEdgeStyle;curved=1;" edge="1" parent="Xjq-Euk7-c84LHBLY0ZQ-155">
          <mxGeometry width="50" height="50" relative="1" as="geometry">
            <mxPoint x="126.92682926829275" y="320" as="sourcePoint" />
            <mxPoint x="199.12195121951208" y="320" as="targetPoint" />
            <Array as="points">
              <mxPoint x="150" y="320" />
              <mxPoint x="150" y="350" />
              <mxPoint x="172" y="350" />
              <mxPoint x="172" y="320" />
            </Array>
          </mxGeometry>
        </mxCell>
        <mxCell id="Xjq-Euk7-c84LHBLY0ZQ-161" value="" style="endArrow=none;html=1;rounded=0;" edge="1" parent="Xjq-Euk7-c84LHBLY0ZQ-155">
          <mxGeometry width="50" height="50" relative="1" as="geometry">
            <mxPoint x="190.09756097560967" y="320" as="sourcePoint" />
            <mxPoint x="440" y="320" as="targetPoint" />
          </mxGeometry>
        </mxCell>
        <mxCell id="Xjq-Euk7-c84LHBLY0ZQ-162" value="M" style="ellipse;whiteSpace=wrap;html=1;aspect=fixed;" vertex="1" parent="Xjq-Euk7-c84LHBLY0ZQ-155">
          <mxGeometry x="150" y="330" width="20" height="20" as="geometry" />
        </mxCell>
        <mxCell id="Xjq-Euk7-c84LHBLY0ZQ-163" value="" style="endArrow=none;html=1;rounded=0;edgeStyle=orthogonalEdgeStyle;curved=1;" edge="1" parent="Xjq-Euk7-c84LHBLY0ZQ-155">
          <mxGeometry width="50" height="50" relative="1" as="geometry">
            <mxPoint x="137.9968292682929" y="288" as="sourcePoint" />
            <mxPoint x="210.19195121951225" y="288" as="targetPoint" />
            <Array as="points">
              <mxPoint x="161.07000000000016" y="288" />
              <mxPoint x="161.07000000000016" y="318" />
              <mxPoint x="183.07000000000016" y="318" />
              <mxPoint x="183.07000000000016" y="288" />
            </Array>
          </mxGeometry>
        </mxCell>
        <mxCell id="Xjq-Euk7-c84LHBLY0ZQ-164" value="" style="endArrow=none;html=1;rounded=0;" edge="1" parent="Xjq-Euk7-c84LHBLY0ZQ-155">
          <mxGeometry width="50" height="50" relative="1" as="geometry">
            <mxPoint x="201.16756097560983" y="288" as="sourcePoint" />
            <mxPoint x="451.07000000000016" y="288" as="targetPoint" />
          </mxGeometry>
        </mxCell>
        <mxCell id="Xjq-Euk7-c84LHBLY0ZQ-165" value="传送带" style="edgeLabel;html=1;align=center;verticalAlign=middle;resizable=0;points=[];" connectable="0" vertex="1" parent="Xjq-Euk7-c84LHBLY0ZQ-164">
          <mxGeometry x="-0.9065" relative="1" as="geometry">
            <mxPoint x="7" y="-14" as="offset" />
          </mxGeometry>
        </mxCell>
        <mxCell id="Xjq-Euk7-c84LHBLY0ZQ-159" value="" style="shape=cylinder3;whiteSpace=wrap;html=1;boundedLbl=1;backgroundOutline=1;size=6.755456891741176;flipV=0;" vertex="1" parent="Xjq-Euk7-c84LHBLY0ZQ-155">
          <mxGeometry x="260" y="150.00999999999996" width="36" height="55.43" as="geometry" />
        </mxCell>
        <mxCell id="Xjq-Euk7-c84LHBLY0ZQ-166" value="M" style="ellipse;whiteSpace=wrap;html=1;aspect=fixed;" vertex="1" parent="Xjq-Euk7-c84LHBLY0ZQ-155">
          <mxGeometry x="161.07000000000016" y="298" width="20" height="20" as="geometry" />
        </mxCell>
        <mxCell id="Xjq-Euk7-c84LHBLY0ZQ-167" value="" style="shape=cube;whiteSpace=wrap;html=1;boundedLbl=1;backgroundOutline=1;darkOpacity=0.05;darkOpacity2=0.1;flipH=1;direction=east;flipV=1;rotation=0;size=27;opacity=50;spacingTop=0;labelPosition=left;verticalLabelPosition=top;align=right;verticalAlign=bottom;" vertex="1" parent="Xjq-Euk7-c84LHBLY0ZQ-155">
          <mxGeometry x="287" y="290" width="70" height="27" as="geometry" />
        </mxCell>
        <mxCell id="Xjq-Euk7-c84LHBLY0ZQ-168" value="" style="ellipse;whiteSpace=wrap;html=1;aspect=fixed;" vertex="1" parent="Xjq-Euk7-c84LHBLY0ZQ-155">
          <mxGeometry x="297" y="292" width="5" height="5" as="geometry" />
        </mxCell>
        <mxCell id="Xjq-Euk7-c84LHBLY0ZQ-169" value="" style="ellipse;whiteSpace=wrap;html=1;aspect=fixed;" vertex="1" parent="Xjq-Euk7-c84LHBLY0ZQ-155">
          <mxGeometry x="326" y="293" width="5" height="5" as="geometry" />
        </mxCell>
        <mxCell id="Xjq-Euk7-c84LHBLY0ZQ-170" value="" style="endArrow=classic;startArrow=classic;html=1;rounded=0;" edge="1" parent="Xjq-Euk7-c84LHBLY0ZQ-155">
          <mxGeometry width="50" height="50" relative="1" as="geometry">
            <mxPoint x="320" y="130" as="sourcePoint" />
            <mxPoint x="380" y="130" as="targetPoint" />
          </mxGeometry>
        </mxCell>
        <mxCell id="Xjq-Euk7-c84LHBLY0ZQ-171" value="X" style="edgeLabel;html=1;align=center;verticalAlign=middle;resizable=0;points=[];" connectable="0" vertex="1" parent="Xjq-Euk7-c84LHBLY0ZQ-170">
          <mxGeometry x="-0.3605" y="1" relative="1" as="geometry">
            <mxPoint x="11" y="-9" as="offset" />
          </mxGeometry>
        </mxCell>
        <mxCell id="Xjq-Euk7-c84LHBLY0ZQ-172" value="" style="endArrow=classic;html=1;rounded=0;edgeStyle=orthogonalEdgeStyle;curved=1;startArrow=none;startFill=0;endFill=1;" edge="1" parent="Xjq-Euk7-c84LHBLY0ZQ-155">
          <mxGeometry width="50" height="50" relative="1" as="geometry">
            <mxPoint x="290" y="130" as="sourcePoint" />
            <mxPoint x="275" y="130" as="targetPoint" />
            <Array as="points">
              <mxPoint x="290" y="140" />
              <mxPoint x="260" y="140" />
            </Array>
          </mxGeometry>
        </mxCell>
        <mxCell id="Xjq-Euk7-c84LHBLY0ZQ-173" value="" style="shape=cube;whiteSpace=wrap;html=1;boundedLbl=1;backgroundOutline=1;darkOpacity=0.05;darkOpacity2=0.1;flipV=0;flipH=1;size=10;" vertex="1" parent="Xjq-Euk7-c84LHBLY0ZQ-155">
          <mxGeometry x="230" y="170" width="30" height="35.44" as="geometry" />
        </mxCell>
        <mxCell id="Xjq-Euk7-c84LHBLY0ZQ-174" value="" style="endArrow=none;html=1;rounded=0;" edge="1" parent="Xjq-Euk7-c84LHBLY0ZQ-155">
          <mxGeometry width="50" height="50" relative="1" as="geometry">
            <mxPoint x="277.8299999999999" y="150.01" as="sourcePoint" />
            <mxPoint x="277.8299999999999" y="120.01" as="targetPoint" />
            <Array as="points">
              <mxPoint x="277.8299999999999" y="140.01" />
            </Array>
          </mxGeometry>
        </mxCell>
        <mxCell id="Xjq-Euk7-c84LHBLY0ZQ-175" value="C&lt;sub&gt;1&lt;/sub&gt;" style="text;html=1;strokeColor=none;fillColor=none;align=center;verticalAlign=middle;whiteSpace=wrap;rounded=0;" vertex="1" parent="Xjq-Euk7-c84LHBLY0ZQ-155">
          <mxGeometry x="266" y="100" width="24" height="20" as="geometry" />
        </mxCell>
        <mxCell id="Xjq-Euk7-c84LHBLY0ZQ-176" value="" style="endArrow=classic;startArrow=classic;html=1;rounded=0;" edge="1" parent="Xjq-Euk7-c84LHBLY0ZQ-155">
          <mxGeometry width="50" height="50" relative="1" as="geometry">
            <mxPoint x="420" y="175.44000000000005" as="sourcePoint" />
            <mxPoint x="390" y="205.44000000000005" as="targetPoint" />
          </mxGeometry>
        </mxCell>
        <mxCell id="Xjq-Euk7-c84LHBLY0ZQ-177" value="Y" style="edgeLabel;html=1;align=center;verticalAlign=middle;resizable=0;points=[];" connectable="0" vertex="1" parent="Xjq-Euk7-c84LHBLY0ZQ-176">
          <mxGeometry x="-0.3605" y="1" relative="1" as="geometry">
            <mxPoint x="-1" y="14" as="offset" />
          </mxGeometry>
        </mxCell>
        <mxCell id="Xjq-Euk7-c84LHBLY0ZQ-178" value="" style="endArrow=none;html=1;rounded=0;" edge="1" parent="Xjq-Euk7-c84LHBLY0ZQ-155">
          <mxGeometry width="50" height="50" relative="1" as="geometry">
            <mxPoint x="200" y="220" as="sourcePoint" />
            <mxPoint x="231.07" y="200" as="targetPoint" />
          </mxGeometry>
        </mxCell>
        <mxCell id="Xjq-Euk7-c84LHBLY0ZQ-179" value="相机" style="edgeLabel;html=1;align=center;verticalAlign=middle;resizable=0;points=[];" connectable="0" vertex="1" parent="Xjq-Euk7-c84LHBLY0ZQ-178">
          <mxGeometry x="-0.2524" y="-1" relative="1" as="geometry">
            <mxPoint x="-22" y="7" as="offset" />
          </mxGeometry>
        </mxCell>
        <mxCell id="Xjq-Euk7-c84LHBLY0ZQ-180" value="" style="endArrow=none;html=1;rounded=0;" edge="1" parent="Xjq-Euk7-c84LHBLY0ZQ-155">
          <mxGeometry width="50" height="50" relative="1" as="geometry">
            <mxPoint x="290" y="230" as="sourcePoint" />
            <mxPoint x="279" y="206.44" as="targetPoint" />
          </mxGeometry>
        </mxCell>
        <mxCell id="Xjq-Euk7-c84LHBLY0ZQ-181" value="激光器" style="edgeLabel;html=1;align=center;verticalAlign=middle;resizable=0;points=[];" connectable="0" vertex="1" parent="Xjq-Euk7-c84LHBLY0ZQ-180">
          <mxGeometry x="-0.348" y="1" relative="1" as="geometry">
            <mxPoint y="15" as="offset" />
          </mxGeometry>
        </mxCell>
        <mxCell id="Xjq-Euk7-c84LHBLY0ZQ-182" value="" style="endArrow=none;html=1;rounded=0;" edge="1" parent="Xjq-Euk7-c84LHBLY0ZQ-155">
          <mxGeometry width="50" height="50" relative="1" as="geometry">
            <mxPoint x="326" y="290" as="sourcePoint" />
            <mxPoint x="330" y="280" as="targetPoint" />
          </mxGeometry>
        </mxCell>
        <mxCell id="Xjq-Euk7-c84LHBLY0ZQ-183" value="工件" style="edgeLabel;html=1;align=center;verticalAlign=middle;resizable=0;points=[];" connectable="0" vertex="1" parent="Xjq-Euk7-c84LHBLY0ZQ-182">
          <mxGeometry x="0.5548" y="-1" relative="1" as="geometry">
            <mxPoint x="5" y="-14" as="offset" />
          </mxGeometry>
        </mxCell>
        <mxCell id="Xjq-Euk7-c84LHBLY0ZQ-184" value="" style="endArrow=classic;startArrow=classic;html=1;rounded=0;" edge="1" parent="Xjq-Euk7-c84LHBLY0ZQ-155">
          <mxGeometry width="50" height="50" relative="1" as="geometry">
            <mxPoint x="306" y="338.43" as="sourcePoint" />
            <mxPoint x="366" y="338.43" as="targetPoint" />
          </mxGeometry>
        </mxCell>
        <mxCell id="Xjq-Euk7-c84LHBLY0ZQ-185" value="X，C" style="edgeLabel;html=1;align=center;verticalAlign=middle;resizable=0;points=[];" connectable="0" vertex="1" parent="Xjq-Euk7-c84LHBLY0ZQ-184">
          <mxGeometry x="0.366" y="-1" relative="1" as="geometry">
            <mxPoint x="-11" y="9" as="offset" />
          </mxGeometry>
        </mxCell>
        <mxCell id="Xjq-Euk7-c84LHBLY0ZQ-186" value="" style="endArrow=classic;html=1;rounded=0;" edge="1" parent="Xjq-Euk7-c84LHBLY0ZQ-155">
          <mxGeometry width="50" height="50" relative="1" as="geometry">
            <mxPoint x="150" y="159" as="sourcePoint" />
            <mxPoint x="130" y="190" as="targetPoint" />
          </mxGeometry>
        </mxCell>
        <mxCell id="Xjq-Euk7-c84LHBLY0ZQ-187" value="" style="endArrow=classic;html=1;rounded=0;" edge="1" parent="Xjq-Euk7-c84LHBLY0ZQ-155">
          <mxGeometry width="50" height="50" relative="1" as="geometry">
            <mxPoint x="150" y="159" as="sourcePoint" />
            <mxPoint x="190" y="159" as="targetPoint" />
          </mxGeometry>
        </mxCell>
        <mxCell id="Xjq-Euk7-c84LHBLY0ZQ-188" value="&lt;i&gt;O&lt;/i&gt;" style="text;html=1;strokeColor=none;fillColor=none;align=center;verticalAlign=middle;whiteSpace=wrap;rounded=0;" vertex="1" parent="Xjq-Euk7-c84LHBLY0ZQ-155">
          <mxGeometry x="125" y="143" width="30" height="20" as="geometry" />
        </mxCell>
        <mxCell id="Xjq-Euk7-c84LHBLY0ZQ-189" value="&lt;i&gt;Y&lt;/i&gt;" style="text;html=1;strokeColor=none;fillColor=none;align=center;verticalAlign=middle;whiteSpace=wrap;rounded=0;" vertex="1" parent="Xjq-Euk7-c84LHBLY0ZQ-155">
          <mxGeometry x="100" y="174.22" width="40" height="27" as="geometry" />
        </mxCell>
        <mxCell id="Xjq-Euk7-c84LHBLY0ZQ-190" value="&lt;i&gt;X&lt;/i&gt;" style="text;html=1;strokeColor=none;fillColor=none;align=center;verticalAlign=middle;whiteSpace=wrap;rounded=0;" vertex="1" parent="Xjq-Euk7-c84LHBLY0ZQ-155">
          <mxGeometry x="170" y="143" width="40" height="17" as="geometry" />
        </mxCell>
        <mxCell id="Xjq-Euk7-c84LHBLY0ZQ-191" value="" style="endArrow=classic;html=1;rounded=0;" edge="1" parent="Xjq-Euk7-c84LHBLY0ZQ-155">
          <mxGeometry width="50" height="50" relative="1" as="geometry">
            <mxPoint x="150" y="160" as="sourcePoint" />
            <mxPoint x="150" y="120" as="targetPoint" />
          </mxGeometry>
        </mxCell>
        <mxCell id="Xjq-Euk7-c84LHBLY0ZQ-192" value="Z" style="text;html=1;strokeColor=none;fillColor=none;align=center;verticalAlign=middle;whiteSpace=wrap;rounded=0;" vertex="1" parent="Xjq-Euk7-c84LHBLY0ZQ-155">
          <mxGeometry x="110" y="100" width="60" height="30" as="geometry" />
        </mxCell>
        <mxCell id="Xjq-Euk7-c84LHBLY0ZQ-206" value="&lt;i&gt;o&lt;sub&gt;w&lt;/sub&gt;&lt;/i&gt;" style="text;html=1;strokeColor=none;fillColor=none;align=center;verticalAlign=middle;whiteSpace=wrap;rounded=0;" vertex="1" parent="Xjq-Euk7-c84LHBLY0ZQ-155">
          <mxGeometry x="271.25" y="283.72" width="30" height="21.57" as="geometry" />
        </mxCell>
        <mxCell id="Xjq-Euk7-c84LHBLY0ZQ-207" value="&lt;i&gt;y&lt;/i&gt;&lt;i&gt;&lt;sub&gt;w&lt;/sub&gt;&lt;/i&gt;" style="text;html=1;strokeColor=none;fillColor=none;align=center;verticalAlign=middle;whiteSpace=wrap;rounded=0;" vertex="1" parent="Xjq-Euk7-c84LHBLY0ZQ-155">
          <mxGeometry x="235" y="308.43000000000006" width="60" height="30" as="geometry" />
        </mxCell>
        <mxCell id="Xjq-Euk7-c84LHBLY0ZQ-208" value="&lt;i&gt;x&lt;/i&gt;&lt;i&gt;&lt;sub&gt;w&lt;/sub&gt;&lt;/i&gt;" style="text;html=1;strokeColor=none;fillColor=none;align=center;verticalAlign=middle;whiteSpace=wrap;rounded=0;" vertex="1" parent="Xjq-Euk7-c84LHBLY0ZQ-155">
          <mxGeometry x="330" y="283.72" width="60" height="30" as="geometry" />
        </mxCell>
        <mxCell id="Xjq-Euk7-c84LHBLY0ZQ-209" value="z&lt;i&gt;&lt;sub&gt;w&lt;/sub&gt;&lt;/i&gt;" style="text;html=1;strokeColor=none;fillColor=none;align=center;verticalAlign=middle;whiteSpace=wrap;rounded=0;" vertex="1" parent="Xjq-Euk7-c84LHBLY0ZQ-155">
          <mxGeometry x="255" y="235.43000000000006" width="60" height="30" as="geometry" />
        </mxCell>
        <mxCell id="Xjq-Euk7-c84LHBLY0ZQ-213" value="" style="endArrow=classic;html=1;rounded=0;" edge="1" parent="Xjq-Euk7-c84LHBLY0ZQ-155">
          <mxGeometry width="50" height="50" relative="1" as="geometry">
            <mxPoint x="299" y="294.43000000000006" as="sourcePoint" />
            <mxPoint x="279" y="325.43000000000006" as="targetPoint" />
          </mxGeometry>
        </mxCell>
        <mxCell id="Xjq-Euk7-c84LHBLY0ZQ-214" value="" style="endArrow=classic;html=1;rounded=0;exitX=0.494;exitY=0.494;exitDx=0;exitDy=0;exitPerimeter=0;" edge="1" parent="Xjq-Euk7-c84LHBLY0ZQ-155" source="Xjq-Euk7-c84LHBLY0ZQ-168">
          <mxGeometry width="50" height="50" relative="1" as="geometry">
            <mxPoint x="313" y="294.43000000000006" as="sourcePoint" />
            <mxPoint x="353" y="294.43000000000006" as="targetPoint" />
          </mxGeometry>
        </mxCell>
        <mxCell id="Xjq-Euk7-c84LHBLY0ZQ-215" value="" style="endArrow=classic;html=1;rounded=0;" edge="1" parent="Xjq-Euk7-c84LHBLY0ZQ-155">
          <mxGeometry width="50" height="50" relative="1" as="geometry">
            <mxPoint x="299" y="295.43000000000006" as="sourcePoint" />
            <mxPoint x="299" y="255.43000000000006" as="targetPoint" />
          </mxGeometry>
        </mxCell>
        <mxCell id="Xjq-Euk7-c84LHBLY0ZQ-216" value="&lt;i&gt;o&lt;span style=&quot;font-size: 10px;&quot;&gt;&lt;sub&gt;T&lt;/sub&gt;&lt;/span&gt;&lt;/i&gt;" style="text;html=1;strokeColor=none;fillColor=none;align=center;verticalAlign=middle;whiteSpace=wrap;rounded=0;" vertex="1" parent="Xjq-Euk7-c84LHBLY0ZQ-155">
          <mxGeometry x="256" y="183.16" width="25" height="22.28" as="geometry" />
        </mxCell>
        <mxCell id="Xjq-Euk7-c84LHBLY0ZQ-217" value="&lt;i&gt;y&lt;/i&gt;&lt;i&gt;&lt;span style=&quot;font-size: 10px;&quot;&gt;&lt;sub&gt;T&lt;/sub&gt;&lt;/span&gt;&lt;/i&gt;" style="text;html=1;strokeColor=none;fillColor=none;align=center;verticalAlign=middle;whiteSpace=wrap;rounded=0;" vertex="1" parent="Xjq-Euk7-c84LHBLY0ZQ-155">
          <mxGeometry x="215" y="253.72000000000003" width="60" height="30" as="geometry" />
        </mxCell>
        <mxCell id="Xjq-Euk7-c84LHBLY0ZQ-218" value="&lt;i&gt;x&lt;/i&gt;&lt;i&gt;&lt;span style=&quot;font-size: 10px;&quot;&gt;&lt;sub&gt;T&lt;/sub&gt;&lt;/span&gt;&lt;/i&gt;" style="text;html=1;strokeColor=none;fillColor=none;align=center;verticalAlign=middle;whiteSpace=wrap;rounded=0;" vertex="1" parent="Xjq-Euk7-c84LHBLY0ZQ-155">
          <mxGeometry x="295" y="184.39000000000001" width="60" height="30" as="geometry" />
        </mxCell>
        <mxCell id="Xjq-Euk7-c84LHBLY0ZQ-219" value="z&lt;i&gt;&lt;span style=&quot;font-size: 10px;&quot;&gt;&lt;sub&gt;T&lt;/sub&gt;&lt;/span&gt;&lt;/i&gt;" style="text;html=1;strokeColor=none;fillColor=none;align=center;verticalAlign=middle;whiteSpace=wrap;rounded=0;" vertex="1" parent="Xjq-Euk7-c84LHBLY0ZQ-155">
          <mxGeometry x="237" y="157.72000000000003" width="60" height="30" as="geometry" />
        </mxCell>
        <mxCell id="Xjq-Euk7-c84LHBLY0ZQ-220" value="" style="endArrow=classic;html=1;rounded=0;" edge="1" parent="Xjq-Euk7-c84LHBLY0ZQ-155">
          <mxGeometry width="50" height="50" relative="1" as="geometry">
            <mxPoint x="279" y="206.72000000000003" as="sourcePoint" />
            <mxPoint x="259" y="237.72000000000003" as="targetPoint" />
          </mxGeometry>
        </mxCell>
        <mxCell id="Xjq-Euk7-c84LHBLY0ZQ-221" value="" style="endArrow=classic;html=1;rounded=0;" edge="1" parent="Xjq-Euk7-c84LHBLY0ZQ-155">
          <mxGeometry width="50" height="50" relative="1" as="geometry">
            <mxPoint x="279" y="206.72000000000003" as="sourcePoint" />
            <mxPoint x="319" y="206.72000000000003" as="targetPoint" />
          </mxGeometry>
        </mxCell>
        <mxCell id="Xjq-Euk7-c84LHBLY0ZQ-222" value="" style="endArrow=classic;html=1;rounded=0;" edge="1" parent="Xjq-Euk7-c84LHBLY0ZQ-155">
          <mxGeometry width="50" height="50" relative="1" as="geometry">
            <mxPoint x="279" y="207.72000000000003" as="sourcePoint" />
            <mxPoint x="279" y="167.72000000000003" as="targetPoint" />
          </mxGeometry>
        </mxCell>
        <mxCell id="Xjq-Euk7-c84LHBLY0ZQ-193" value="拓扑图" style="swimlane;whiteSpace=wrap;html=1;" vertex="1" parent="1">
          <mxGeometry x="960" y="1850" width="610" height="447" as="geometry" />
        </mxCell>
        <mxCell id="Xjq-Euk7-c84LHBLY0ZQ-194" value="B&lt;sub&gt;0&lt;/sub&gt;{R}" style="ellipse;whiteSpace=wrap;html=1;aspect=fixed;opacity=50;" vertex="1" parent="Xjq-Euk7-c84LHBLY0ZQ-193">
          <mxGeometry x="260" y="320" width="60" height="60" as="geometry" />
        </mxCell>
        <mxCell id="Xjq-Euk7-c84LHBLY0ZQ-195" value="B&lt;sub&gt;1&lt;/sub&gt;{M}" style="ellipse;whiteSpace=wrap;html=1;aspect=fixed;opacity=50;" vertex="1" parent="Xjq-Euk7-c84LHBLY0ZQ-193">
          <mxGeometry x="306" y="300" width="60" height="60" as="geometry" />
        </mxCell>
        <mxCell id="Xjq-Euk7-c84LHBLY0ZQ-196" value="B&lt;sub&gt;2&lt;/sub&gt;{W}" style="ellipse;whiteSpace=wrap;html=1;aspect=fixed;opacity=50;" vertex="1" parent="Xjq-Euk7-c84LHBLY0ZQ-193">
          <mxGeometry x="350" y="270" width="60" height="60" as="geometry" />
        </mxCell>
        <mxCell id="Xjq-Euk7-c84LHBLY0ZQ-197" value="B&lt;sub&gt;3&lt;/sub&gt;{Y}" style="ellipse;whiteSpace=wrap;html=1;aspect=fixed;opacity=50;" vertex="1" parent="Xjq-Euk7-c84LHBLY0ZQ-193">
          <mxGeometry x="210" y="310" width="60" height="60" as="geometry" />
        </mxCell>
        <mxCell id="Xjq-Euk7-c84LHBLY0ZQ-198" value="B&lt;sub&gt;4&lt;/sub&gt;{X}" style="ellipse;whiteSpace=wrap;html=1;aspect=fixed;opacity=50;" vertex="1" parent="Xjq-Euk7-c84LHBLY0ZQ-193">
          <mxGeometry x="170" y="280" width="60" height="60" as="geometry" />
        </mxCell>
        <mxCell id="Xjq-Euk7-c84LHBLY0ZQ-199" value="B&lt;sub&gt;5&lt;/sub&gt;{C}" style="ellipse;whiteSpace=wrap;html=1;aspect=fixed;opacity=50;" vertex="1" parent="Xjq-Euk7-c84LHBLY0ZQ-193">
          <mxGeometry x="130" y="250" width="60" height="60" as="geometry" />
        </mxCell>
        <mxCell id="Xjq-Euk7-c84LHBLY0ZQ-200" value="B&lt;sub&gt;6&lt;/sub&gt;{T}" style="ellipse;whiteSpace=wrap;html=1;aspect=fixed;opacity=50;" vertex="1" parent="Xjq-Euk7-c84LHBLY0ZQ-193">
          <mxGeometry x="90" y="220" width="60" height="60" as="geometry" />
        </mxCell>
        <mxCell id="Xjq-Euk7-c84LHBLY0ZQ-201" value="B&lt;sub&gt;7&lt;/sub&gt;{V}" style="ellipse;whiteSpace=wrap;html=1;aspect=fixed;opacity=50;" vertex="1" parent="Xjq-Euk7-c84LHBLY0ZQ-193">
          <mxGeometry x="50" y="190" width="60" height="60" as="geometry" />
        </mxCell>
        <mxCell id="Xjq-Euk7-c84LHBLY0ZQ-227" value="" style="shape=cube;whiteSpace=wrap;html=1;boundedLbl=1;backgroundOutline=1;darkOpacity=0.05;darkOpacity2=0.1;direction=east;flipH=1;" vertex="1" parent="1">
          <mxGeometry x="1060" y="1520" width="390" height="280" as="geometry" />
        </mxCell>
        <mxCell id="Xjq-Euk7-c84LHBLY0ZQ-228" value="" style="rounded=0;whiteSpace=wrap;html=1;" vertex="1" parent="1">
          <mxGeometry x="1231.25" y="1630" width="13.5" height="18.78" as="geometry" />
        </mxCell>
        <mxCell id="Xjq-Euk7-c84LHBLY0ZQ-229" value="" style="shape=cube;whiteSpace=wrap;html=1;boundedLbl=1;backgroundOutline=1;darkOpacity=0.05;darkOpacity2=0.1;flipH=0;direction=west;flipV=1;rotation=0;size=70;" vertex="1" parent="1">
          <mxGeometry x="1266" y="1580" width="104" height="95.43" as="geometry" />
        </mxCell>
        <mxCell id="Xjq-Euk7-c84LHBLY0ZQ-230" value="" style="shape=cube;whiteSpace=wrap;html=1;boundedLbl=1;backgroundOutline=1;darkOpacity=0.05;darkOpacity2=0.1;flipV=0;flipH=1;" vertex="1" parent="1">
          <mxGeometry x="1180" y="1587.72" width="170" height="40" as="geometry" />
        </mxCell>
        <mxCell id="Xjq-Euk7-c84LHBLY0ZQ-231" value="" style="endArrow=none;html=1;rounded=0;edgeStyle=orthogonalEdgeStyle;curved=1;" edge="1" parent="1">
          <mxGeometry width="50" height="50" relative="1" as="geometry">
            <mxPoint x="1086.9268292682927" y="1760" as="sourcePoint" />
            <mxPoint x="1159.121951219512" y="1760" as="targetPoint" />
            <Array as="points">
              <mxPoint x="1110" y="1760" />
              <mxPoint x="1110" y="1790" />
              <mxPoint x="1132" y="1790" />
              <mxPoint x="1132" y="1760" />
            </Array>
          </mxGeometry>
        </mxCell>
        <mxCell id="Xjq-Euk7-c84LHBLY0ZQ-232" value="" style="endArrow=none;html=1;rounded=0;" edge="1" parent="1">
          <mxGeometry width="50" height="50" relative="1" as="geometry">
            <mxPoint x="1150.0975609756097" y="1760" as="sourcePoint" />
            <mxPoint x="1400" y="1760" as="targetPoint" />
          </mxGeometry>
        </mxCell>
        <mxCell id="Xjq-Euk7-c84LHBLY0ZQ-233" value="M" style="ellipse;whiteSpace=wrap;html=1;aspect=fixed;" vertex="1" parent="1">
          <mxGeometry x="1110" y="1770" width="20" height="20" as="geometry" />
        </mxCell>
        <mxCell id="Xjq-Euk7-c84LHBLY0ZQ-234" value="" style="endArrow=none;html=1;rounded=0;edgeStyle=orthogonalEdgeStyle;curved=1;" edge="1" parent="1">
          <mxGeometry width="50" height="50" relative="1" as="geometry">
            <mxPoint x="1097.996829268293" y="1728" as="sourcePoint" />
            <mxPoint x="1170.1919512195122" y="1728" as="targetPoint" />
            <Array as="points">
              <mxPoint x="1121.0700000000002" y="1728" />
              <mxPoint x="1121.0700000000002" y="1758" />
              <mxPoint x="1143.0700000000002" y="1758" />
              <mxPoint x="1143.0700000000002" y="1728" />
            </Array>
          </mxGeometry>
        </mxCell>
        <mxCell id="Xjq-Euk7-c84LHBLY0ZQ-235" value="" style="endArrow=none;html=1;rounded=0;" edge="1" parent="1">
          <mxGeometry width="50" height="50" relative="1" as="geometry">
            <mxPoint x="1161.1675609756098" y="1728" as="sourcePoint" />
            <mxPoint x="1411.0700000000002" y="1728" as="targetPoint" />
          </mxGeometry>
        </mxCell>
        <mxCell id="Xjq-Euk7-c84LHBLY0ZQ-236" value="传送带" style="edgeLabel;html=1;align=center;verticalAlign=middle;resizable=0;points=[];" vertex="1" connectable="0" parent="Xjq-Euk7-c84LHBLY0ZQ-235">
          <mxGeometry x="-0.9065" relative="1" as="geometry">
            <mxPoint x="7" y="-14" as="offset" />
          </mxGeometry>
        </mxCell>
        <mxCell id="Xjq-Euk7-c84LHBLY0ZQ-237" value="" style="shape=cylinder3;whiteSpace=wrap;html=1;boundedLbl=1;backgroundOutline=1;size=6.755456891741176;flipV=0;" vertex="1" parent="1">
          <mxGeometry x="1220" y="1590.01" width="36" height="55.43" as="geometry" />
        </mxCell>
        <mxCell id="Xjq-Euk7-c84LHBLY0ZQ-238" value="M" style="ellipse;whiteSpace=wrap;html=1;aspect=fixed;" vertex="1" parent="1">
          <mxGeometry x="1121.0700000000002" y="1738" width="20" height="20" as="geometry" />
        </mxCell>
        <mxCell id="Xjq-Euk7-c84LHBLY0ZQ-239" value="" style="shape=cube;whiteSpace=wrap;html=1;boundedLbl=1;backgroundOutline=1;darkOpacity=0.05;darkOpacity2=0.1;flipH=1;direction=east;flipV=1;rotation=0;size=27;opacity=50;spacingTop=0;labelPosition=left;verticalLabelPosition=top;align=right;verticalAlign=bottom;" vertex="1" parent="1">
          <mxGeometry x="1247" y="1730" width="70" height="27" as="geometry" />
        </mxCell>
        <mxCell id="Xjq-Euk7-c84LHBLY0ZQ-240" value="" style="ellipse;whiteSpace=wrap;html=1;aspect=fixed;" vertex="1" parent="1">
          <mxGeometry x="1257" y="1732" width="5" height="5" as="geometry" />
        </mxCell>
        <mxCell id="Xjq-Euk7-c84LHBLY0ZQ-241" value="" style="ellipse;whiteSpace=wrap;html=1;aspect=fixed;" vertex="1" parent="1">
          <mxGeometry x="1283" y="1732" width="5" height="5" as="geometry" />
        </mxCell>
        <mxCell id="Xjq-Euk7-c84LHBLY0ZQ-242" value="" style="endArrow=classic;startArrow=classic;html=1;rounded=0;" edge="1" parent="1">
          <mxGeometry width="50" height="50" relative="1" as="geometry">
            <mxPoint x="1280" y="1570" as="sourcePoint" />
            <mxPoint x="1340" y="1570" as="targetPoint" />
          </mxGeometry>
        </mxCell>
        <mxCell id="Xjq-Euk7-c84LHBLY0ZQ-243" value="X&lt;sub&gt;1&lt;/sub&gt;" style="edgeLabel;html=1;align=center;verticalAlign=middle;resizable=0;points=[];" vertex="1" connectable="0" parent="Xjq-Euk7-c84LHBLY0ZQ-242">
          <mxGeometry x="-0.3605" y="1" relative="1" as="geometry">
            <mxPoint x="11" y="-9" as="offset" />
          </mxGeometry>
        </mxCell>
        <mxCell id="Xjq-Euk7-c84LHBLY0ZQ-244" value="" style="endArrow=classic;html=1;rounded=0;edgeStyle=orthogonalEdgeStyle;curved=1;startArrow=classic;startFill=1;endFill=1;" edge="1" parent="1">
          <mxGeometry width="50" height="50" relative="1" as="geometry">
            <mxPoint x="1248" y="1570" as="sourcePoint" />
            <mxPoint x="1233" y="1570" as="targetPoint" />
            <Array as="points">
              <mxPoint x="1258" y="1570" />
              <mxPoint x="1258" y="1580" />
              <mxPoint x="1218" y="1580" />
              <mxPoint x="1218" y="1570" />
            </Array>
          </mxGeometry>
        </mxCell>
        <mxCell id="Xjq-Euk7-c84LHBLY0ZQ-245" value="" style="shape=cube;whiteSpace=wrap;html=1;boundedLbl=1;backgroundOutline=1;darkOpacity=0.05;darkOpacity2=0.1;flipV=0;flipH=1;size=10;" vertex="1" parent="1">
          <mxGeometry x="1190" y="1610" width="30" height="35.44" as="geometry" />
        </mxCell>
        <mxCell id="Xjq-Euk7-c84LHBLY0ZQ-246" value="" style="endArrow=none;html=1;rounded=0;" edge="1" parent="1">
          <mxGeometry width="50" height="50" relative="1" as="geometry">
            <mxPoint x="1237.83" y="1590.01" as="sourcePoint" />
            <mxPoint x="1237.83" y="1560.01" as="targetPoint" />
            <Array as="points">
              <mxPoint x="1237.83" y="1580.01" />
            </Array>
          </mxGeometry>
        </mxCell>
        <mxCell id="Xjq-Euk7-c84LHBLY0ZQ-247" value="C&lt;sub&gt;1&lt;/sub&gt;" style="text;html=1;strokeColor=none;fillColor=none;align=center;verticalAlign=middle;whiteSpace=wrap;rounded=0;" vertex="1" parent="1">
          <mxGeometry x="1226" y="1540" width="24" height="20" as="geometry" />
        </mxCell>
        <mxCell id="Xjq-Euk7-c84LHBLY0ZQ-248" value="" style="endArrow=classic;startArrow=classic;html=1;rounded=0;" edge="1" parent="1">
          <mxGeometry width="50" height="50" relative="1" as="geometry">
            <mxPoint x="1380" y="1615.44" as="sourcePoint" />
            <mxPoint x="1350" y="1645.44" as="targetPoint" />
          </mxGeometry>
        </mxCell>
        <mxCell id="Xjq-Euk7-c84LHBLY0ZQ-249" value="Y" style="edgeLabel;html=1;align=center;verticalAlign=middle;resizable=0;points=[];" vertex="1" connectable="0" parent="Xjq-Euk7-c84LHBLY0ZQ-248">
          <mxGeometry x="-0.3605" y="1" relative="1" as="geometry">
            <mxPoint x="-1" y="14" as="offset" />
          </mxGeometry>
        </mxCell>
        <mxCell id="Xjq-Euk7-c84LHBLY0ZQ-250" value="" style="endArrow=none;html=1;rounded=0;" edge="1" parent="1">
          <mxGeometry width="50" height="50" relative="1" as="geometry">
            <mxPoint x="1160" y="1660" as="sourcePoint" />
            <mxPoint x="1191.07" y="1640" as="targetPoint" />
          </mxGeometry>
        </mxCell>
        <mxCell id="Xjq-Euk7-c84LHBLY0ZQ-251" value="相机" style="edgeLabel;html=1;align=center;verticalAlign=middle;resizable=0;points=[];" vertex="1" connectable="0" parent="Xjq-Euk7-c84LHBLY0ZQ-250">
          <mxGeometry x="-0.2524" y="-1" relative="1" as="geometry">
            <mxPoint x="-22" y="7" as="offset" />
          </mxGeometry>
        </mxCell>
        <mxCell id="Xjq-Euk7-c84LHBLY0ZQ-252" value="" style="endArrow=none;html=1;rounded=0;" edge="1" parent="1">
          <mxGeometry width="50" height="50" relative="1" as="geometry">
            <mxPoint x="1250" y="1670" as="sourcePoint" />
            <mxPoint x="1239" y="1646.44" as="targetPoint" />
          </mxGeometry>
        </mxCell>
        <mxCell id="Xjq-Euk7-c84LHBLY0ZQ-253" value="激光器" style="edgeLabel;html=1;align=center;verticalAlign=middle;resizable=0;points=[];" vertex="1" connectable="0" parent="Xjq-Euk7-c84LHBLY0ZQ-252">
          <mxGeometry x="-0.348" y="1" relative="1" as="geometry">
            <mxPoint y="15" as="offset" />
          </mxGeometry>
        </mxCell>
        <mxCell id="Xjq-Euk7-c84LHBLY0ZQ-254" value="" style="endArrow=none;html=1;rounded=0;" edge="1" parent="1">
          <mxGeometry width="50" height="50" relative="1" as="geometry">
            <mxPoint x="1286" y="1730" as="sourcePoint" />
            <mxPoint x="1290" y="1720" as="targetPoint" />
          </mxGeometry>
        </mxCell>
        <mxCell id="Xjq-Euk7-c84LHBLY0ZQ-255" value="工件" style="edgeLabel;html=1;align=center;verticalAlign=middle;resizable=0;points=[];" vertex="1" connectable="0" parent="Xjq-Euk7-c84LHBLY0ZQ-254">
          <mxGeometry x="0.5548" y="-1" relative="1" as="geometry">
            <mxPoint x="5" y="-14" as="offset" />
          </mxGeometry>
        </mxCell>
        <mxCell id="Xjq-Euk7-c84LHBLY0ZQ-256" value="" style="endArrow=classic;startArrow=classic;html=1;rounded=0;" edge="1" parent="1">
          <mxGeometry width="50" height="50" relative="1" as="geometry">
            <mxPoint x="1266" y="1778.43" as="sourcePoint" />
            <mxPoint x="1326" y="1778.43" as="targetPoint" />
          </mxGeometry>
        </mxCell>
        <mxCell id="Xjq-Euk7-c84LHBLY0ZQ-257" value="X&lt;sub&gt;2&lt;/sub&gt;，C&lt;sub&gt;2&lt;/sub&gt;" style="edgeLabel;html=1;align=center;verticalAlign=middle;resizable=0;points=[];" vertex="1" connectable="0" parent="Xjq-Euk7-c84LHBLY0ZQ-256">
          <mxGeometry x="0.366" y="-1" relative="1" as="geometry">
            <mxPoint x="-11" y="9" as="offset" />
          </mxGeometry>
        </mxCell>
        <mxCell id="Xjq-Euk7-c84LHBLY0ZQ-258" value="" style="endArrow=classic;html=1;rounded=0;" edge="1" parent="1">
          <mxGeometry width="50" height="50" relative="1" as="geometry">
            <mxPoint x="1110" y="1599" as="sourcePoint" />
            <mxPoint x="1090" y="1630" as="targetPoint" />
          </mxGeometry>
        </mxCell>
        <mxCell id="Xjq-Euk7-c84LHBLY0ZQ-259" value="" style="endArrow=classic;html=1;rounded=0;" edge="1" parent="1">
          <mxGeometry width="50" height="50" relative="1" as="geometry">
            <mxPoint x="1110" y="1599" as="sourcePoint" />
            <mxPoint x="1150" y="1599" as="targetPoint" />
          </mxGeometry>
        </mxCell>
        <mxCell id="Xjq-Euk7-c84LHBLY0ZQ-260" value="&lt;i&gt;O&lt;/i&gt;" style="text;html=1;strokeColor=none;fillColor=none;align=center;verticalAlign=middle;whiteSpace=wrap;rounded=0;" vertex="1" parent="1">
          <mxGeometry x="1085" y="1583" width="30" height="20" as="geometry" />
        </mxCell>
        <mxCell id="Xjq-Euk7-c84LHBLY0ZQ-261" value="&lt;i&gt;Y&lt;/i&gt;" style="text;html=1;strokeColor=none;fillColor=none;align=center;verticalAlign=middle;whiteSpace=wrap;rounded=0;" vertex="1" parent="1">
          <mxGeometry x="1060" y="1614.22" width="40" height="27" as="geometry" />
        </mxCell>
        <mxCell id="Xjq-Euk7-c84LHBLY0ZQ-262" value="&lt;i&gt;X&lt;/i&gt;" style="text;html=1;strokeColor=none;fillColor=none;align=center;verticalAlign=middle;whiteSpace=wrap;rounded=0;" vertex="1" parent="1">
          <mxGeometry x="1130" y="1583" width="40" height="17" as="geometry" />
        </mxCell>
        <mxCell id="Xjq-Euk7-c84LHBLY0ZQ-263" value="" style="endArrow=classic;html=1;rounded=0;" edge="1" parent="1">
          <mxGeometry width="50" height="50" relative="1" as="geometry">
            <mxPoint x="1110" y="1600" as="sourcePoint" />
            <mxPoint x="1110" y="1560" as="targetPoint" />
          </mxGeometry>
        </mxCell>
        <mxCell id="Xjq-Euk7-c84LHBLY0ZQ-264" value="Z" style="text;html=1;strokeColor=none;fillColor=none;align=center;verticalAlign=middle;whiteSpace=wrap;rounded=0;" vertex="1" parent="1">
          <mxGeometry x="1070" y="1540" width="60" height="30" as="geometry" />
        </mxCell>
        <mxCell id="Xjq-Euk7-c84LHBLY0ZQ-265" value="&lt;i&gt;o&lt;sub&gt;w&lt;/sub&gt;&lt;/i&gt;" style="text;html=1;strokeColor=none;fillColor=none;align=center;verticalAlign=middle;whiteSpace=wrap;rounded=0;" vertex="1" parent="1">
          <mxGeometry x="1231.25" y="1723.72" width="30" height="21.57" as="geometry" />
        </mxCell>
        <mxCell id="Xjq-Euk7-c84LHBLY0ZQ-266" value="&lt;i&gt;y&lt;/i&gt;&lt;i&gt;&lt;sub&gt;w&lt;/sub&gt;&lt;/i&gt;" style="text;html=1;strokeColor=none;fillColor=none;align=center;verticalAlign=middle;whiteSpace=wrap;rounded=0;" vertex="1" parent="1">
          <mxGeometry x="1195" y="1748.43" width="60" height="30" as="geometry" />
        </mxCell>
        <mxCell id="Xjq-Euk7-c84LHBLY0ZQ-267" value="&lt;i&gt;x&lt;/i&gt;&lt;i&gt;&lt;sub&gt;w&lt;/sub&gt;&lt;/i&gt;" style="text;html=1;strokeColor=none;fillColor=none;align=center;verticalAlign=middle;whiteSpace=wrap;rounded=0;" vertex="1" parent="1">
          <mxGeometry x="1290" y="1723.72" width="60" height="30" as="geometry" />
        </mxCell>
        <mxCell id="Xjq-Euk7-c84LHBLY0ZQ-268" value="z&lt;i&gt;&lt;sub&gt;w&lt;/sub&gt;&lt;/i&gt;" style="text;html=1;strokeColor=none;fillColor=none;align=center;verticalAlign=middle;whiteSpace=wrap;rounded=0;" vertex="1" parent="1">
          <mxGeometry x="1215" y="1675.43" width="60" height="30" as="geometry" />
        </mxCell>
        <mxCell id="Xjq-Euk7-c84LHBLY0ZQ-269" value="" style="endArrow=classic;html=1;rounded=0;" edge="1" parent="1">
          <mxGeometry width="50" height="50" relative="1" as="geometry">
            <mxPoint x="1259" y="1734.43" as="sourcePoint" />
            <mxPoint x="1239" y="1765.43" as="targetPoint" />
          </mxGeometry>
        </mxCell>
        <mxCell id="Xjq-Euk7-c84LHBLY0ZQ-270" value="" style="endArrow=classic;html=1;rounded=0;exitX=0.494;exitY=0.494;exitDx=0;exitDy=0;exitPerimeter=0;" edge="1" parent="1" source="Xjq-Euk7-c84LHBLY0ZQ-240">
          <mxGeometry width="50" height="50" relative="1" as="geometry">
            <mxPoint x="1273" y="1734.43" as="sourcePoint" />
            <mxPoint x="1313" y="1734.43" as="targetPoint" />
          </mxGeometry>
        </mxCell>
        <mxCell id="Xjq-Euk7-c84LHBLY0ZQ-271" value="" style="endArrow=classic;html=1;rounded=0;" edge="1" parent="1">
          <mxGeometry width="50" height="50" relative="1" as="geometry">
            <mxPoint x="1259" y="1735.43" as="sourcePoint" />
            <mxPoint x="1259" y="1695.43" as="targetPoint" />
          </mxGeometry>
        </mxCell>
        <mxCell id="Xjq-Euk7-c84LHBLY0ZQ-272" value="&lt;i&gt;o&lt;span style=&quot;font-size: 10px;&quot;&gt;&lt;sub&gt;T&lt;/sub&gt;&lt;/span&gt;&lt;/i&gt;" style="text;html=1;strokeColor=none;fillColor=none;align=center;verticalAlign=middle;whiteSpace=wrap;rounded=0;" vertex="1" parent="1">
          <mxGeometry x="1216" y="1623.16" width="25" height="22.28" as="geometry" />
        </mxCell>
        <mxCell id="Xjq-Euk7-c84LHBLY0ZQ-273" value="&lt;i&gt;y&lt;/i&gt;&lt;i&gt;&lt;span style=&quot;font-size: 10px;&quot;&gt;&lt;sub&gt;T&lt;/sub&gt;&lt;/span&gt;&lt;/i&gt;" style="text;html=1;strokeColor=none;fillColor=none;align=center;verticalAlign=middle;whiteSpace=wrap;rounded=0;" vertex="1" parent="1">
          <mxGeometry x="1175" y="1693.72" width="60" height="30" as="geometry" />
        </mxCell>
        <mxCell id="Xjq-Euk7-c84LHBLY0ZQ-274" value="&lt;i&gt;x&lt;/i&gt;&lt;i&gt;&lt;span style=&quot;font-size: 10px;&quot;&gt;&lt;sub&gt;T&lt;/sub&gt;&lt;/span&gt;&lt;/i&gt;" style="text;html=1;strokeColor=none;fillColor=none;align=center;verticalAlign=middle;whiteSpace=wrap;rounded=0;" vertex="1" parent="1">
          <mxGeometry x="1255" y="1624.39" width="60" height="30" as="geometry" />
        </mxCell>
        <mxCell id="Xjq-Euk7-c84LHBLY0ZQ-275" value="z&lt;i&gt;&lt;span style=&quot;font-size: 10px;&quot;&gt;&lt;sub&gt;T&lt;/sub&gt;&lt;/span&gt;&lt;/i&gt;" style="text;html=1;strokeColor=none;fillColor=none;align=center;verticalAlign=middle;whiteSpace=wrap;rounded=0;" vertex="1" parent="1">
          <mxGeometry x="1197" y="1597.72" width="60" height="30" as="geometry" />
        </mxCell>
        <mxCell id="Xjq-Euk7-c84LHBLY0ZQ-276" value="" style="endArrow=classic;html=1;rounded=0;" edge="1" parent="1">
          <mxGeometry width="50" height="50" relative="1" as="geometry">
            <mxPoint x="1239" y="1646.72" as="sourcePoint" />
            <mxPoint x="1219" y="1677.72" as="targetPoint" />
          </mxGeometry>
        </mxCell>
        <mxCell id="Xjq-Euk7-c84LHBLY0ZQ-277" value="" style="endArrow=classic;html=1;rounded=0;" edge="1" parent="1">
          <mxGeometry width="50" height="50" relative="1" as="geometry">
            <mxPoint x="1239" y="1646.72" as="sourcePoint" />
            <mxPoint x="1279" y="1646.72" as="targetPoint" />
          </mxGeometry>
        </mxCell>
        <mxCell id="Xjq-Euk7-c84LHBLY0ZQ-278" value="" style="endArrow=classic;html=1;rounded=0;" edge="1" parent="1">
          <mxGeometry width="50" height="50" relative="1" as="geometry">
            <mxPoint x="1239" y="1647.72" as="sourcePoint" />
            <mxPoint x="1239" y="1607.72" as="targetPoint" />
          </mxGeometry>
        </mxCell>
      </root>
    </mxGraphModel>
  </diagram>
</mxfile>
